<?xml version="1.0" encoding="utf-8"?>
<!-- Generator: Adobe Illustrator 15.0.0, SVG Export Plug-In . SVG Version: 6.00 Build 0)  -->
<!DOCTYPE svg PUBLIC "-//W3C//DTD SVG 1.1//EN" "http://www.w3.org/Graphics/SVG/1.1/DTD/svg11.dtd">
<svg version="1.1" id="Layer_1" xmlns="http://www.w3.org/2000/svg" xmlns:xlink="http://www.w3.org/1999/xlink" x="0px" y="0px"
	 width="300px" height="300px" viewBox="0 0 300 300" style="enable-background:new 0 0 300 300;" xml:space="preserve">
<style type="text/css">
<![CDATA[
	.st0{display:none;fill:none;stroke:#000000;stroke-miterlimit:10;}
	.st1{fill:#FFFFFF;}
]]>
</style>
<circle class="st0" cx="160.25" cy="132.75" r="50.32"/>
<circle class="st0" cx="160.25" cy="132.75" r="50.32"/>
<g>
	<path class="st1" d="M150.25,104.43c-24.989,0-45.32,20.331-45.32,45.32s20.331,45.32,45.32,45.32s45.32-20.331,45.32-45.32
		S175.239,104.43,150.25,104.43z"/>
	<path class="st1" d="M217.35,129.239c-1.497-4.941-3.188-9.229-5.299-13.109l-1.317-2.478l13.485-23.037l-15.132-15.164
		l-23.098,13.458l-2.464-1.325c-3.595-1.932-7.614-3.515-13.035-5.133l-2.682-0.301L160.986,57h-21.474l-6.832,25.151L130,82.701
		c-4.935,1.474-9.202,3.068-13.043,5.133l-2.471,1.265L91.364,75.546L76.201,90.671l13.405,23.005l-1.34,2.468
		c-2.753,5.076-4.588,9.282-5.775,13.241l-1.307,2.691L55,138.782v21.437l26.046,6.68l1.044,2.72
		c1.269,4.346,3.3,8.891,5.791,13.508l1.39,2.461l-13.17,22.782l15.224,15.185l22.724-13.213l2.478,1.351
		c5.039,2.75,9.487,4.679,13.594,5.895l2.705,1.3L139.53,245h21.44l6.696-26.113l2.705-1.051c4.37-1.294,8.939-3.36,13.583-5.895
		l2.469-1.41l22.696,13.118l15.185-15.223l-13.263-22.808l1.325-2.468c1.978-3.678,3.648-7.936,5.258-13.396l0.294-2.695
		L243,160.238v-21.477l-25.219-6.857L217.35,129.239z M150.25,205.07c-30.503,0-55.32-24.816-55.32-55.32
		c0-30.503,24.816-55.32,55.32-55.32c30.504,0,55.32,24.816,55.32,55.32C205.57,180.254,180.754,205.07,150.25,205.07z"/>
	<path class="st1" d="M0,0v300h300V0H0z M253,167.922l-27.115,7.363c-1.216,3.793-2.247,7.08-3.677,10.066l14.482,24.681
		l-25.991,26.094l-24.497-14.21c-3.474,1.762-6.905,3.73-10.286,4.889L168.69,255h-36.88l-7.251-28.205
		c-3.257-1.136-6.666-2.872-10.312-4.746L89.718,236.19l-26.095-26.116l14.279-24.673c-1.725-3.443-3.664-6.877-4.798-10.228
		L45,167.941v-36.883l28.297-7.259c1.097-3.106,2.77-6.347,4.606-9.925L63.554,89.027L89.693,62.99l25.029,14.619
		c3-1.455,6.221-2.242,9.708-3.394L131.827,47h36.847l7.37,27.204c3.688,1.192,6.813,2.164,9.685,3.537l24.995-14.687l26.036,26.015
		l-14.55,24.852c1.49,3.033,2.308,6.25,3.482,9.76L253,131.079V167.922z"/>
</g>
</svg>
