<?xml version="1.0" encoding="utf-8"?>
<!-- Generator: Adobe Illustrator 15.0.0, SVG Export Plug-In . SVG Version: 6.00 Build 0)  -->
<!DOCTYPE svg PUBLIC "-//W3C//DTD SVG 1.1//EN" "http://www.w3.org/Graphics/SVG/1.1/DTD/svg11.dtd">
<svg version="1.1" id="Layer_1" xmlns="http://www.w3.org/2000/svg" xmlns:xlink="http://www.w3.org/1999/xlink" x="0px" y="0px"
	 width="300px" height="300px" viewBox="0 0 300 300" style="enable-background:new 0 0 300 300;" xml:space="preserve">
<style type="text/css">
<![CDATA[
	.st0{fill:#FFFFFF;}
]]>
</style>
<g>
	<path class="st0" d="M150,105.932c-24.299,0-44.068,19.769-44.068,44.068s19.769,44.068,44.068,44.068S194.069,174.3,194.069,150
		S174.3,105.932,150,105.932z"/>
	<path class="st0" d="M149.987,65.715l-72.974,42.131l0.012,84.286l72.988,42.154l72.974-42.132l-0.012-84.286L149.987,65.715z
		 M150,204.068c-29.813,0-54.068-24.255-54.068-54.068c0-29.813,24.255-54.068,54.068-54.068c29.814,0,54.069,24.255,54.069,54.068
		C204.069,179.813,179.814,204.068,150,204.068z"/>
	<path class="st0" d="M0,0v300h300V0H0z M150.013,245.833l-82.986-47.928l-0.014-95.833l82.976-47.906l82.987,47.928l0.012,95.833
		L150.013,245.833z"/>
</g>
</svg>
