<?xml version="1.0" encoding="utf-8"?>
<!-- Generator: Adobe Illustrator 15.0.0, SVG Export Plug-In . SVG Version: 6.00 Build 0)  -->
<!DOCTYPE svg PUBLIC "-//W3C//DTD SVG 1.1//EN" "http://www.w3.org/Graphics/SVG/1.1/DTD/svg11.dtd">
<svg version="1.1" id="Layer_1" xmlns="http://www.w3.org/2000/svg" xmlns:xlink="http://www.w3.org/1999/xlink" x="0px" y="0px"
	 width="3106.839px" height="2552.972px" viewBox="0 0 3106.839 2552.972" style="enable-background:new 0 0 3106.839 2552.972;"
	 xml:space="preserve">
<style type="text/css">
<![CDATA[
	.st0{fill:#FFFFFF;}
]]>
</style>
<g>
	<path class="st0" d="M650.68,513.93c10.95,0,19.85-8.9,19.85-19.84c0-10.95-8.899-19.85-19.85-19.85
		c-10.939,0-19.84,8.9-19.84,19.85C630.84,505.03,639.74,513.93,650.68,513.93z"/>
	<path class="st0" d="M585,583h52v-23h99v23h56V450H585V583z M726.68,464.24c16.46,0,29.851,13.39,29.851,29.85
		c0,16.45-13.391,29.84-29.851,29.84c-16.449,0-29.84-13.39-29.84-29.84C696.84,477.63,710.23,464.24,726.68,464.24z M650.68,464.24
		c16.461,0,29.85,13.39,29.85,29.85c0,16.45-13.389,29.84-29.85,29.84c-16.449,0-29.84-13.39-29.84-29.84
		C620.84,477.63,634.23,464.24,650.68,464.24z"/>
	<path class="st0" d="M726.68,513.93c10.94,0,19.851-8.9,19.851-19.84c0-10.95-8.91-19.85-19.851-19.85
		c-10.939,0-19.84,8.9-19.84,19.85C706.84,505.03,715.74,513.93,726.68,513.93z"/>
	<rect x="568" y="489" class="st0" width="7" height="48"/>
	<path class="st0" d="M847.579,994.79c-11.957,1.572-25.352-0.987-37.997-7.352c-14.146-7.12-24.568-17.273-29.896-28.931
		l-4.374,8.689c4.269,11.539,15.021,22.566,29.003,29.671c5.799,2.891,11.861,4.958,17.949,6.206
		c0.005,0.001,0.001-0.003,0.006-0.002c0.395,0.082,0.771,0.137,1.164,0.209c5.885,1.026,11.601,1.152,16.869,0.348
		c1.172-0.225,2.066-0.617,3.318-0.879l4.026-8.002C847.634,994.768,847.617,994.785,847.579,994.79z"/>
	<path class="st0" d="M839.417,927.694c-23.689-11.922-49.222-9.188-56.914,6.095c-1.051,2.088-1.735,4.37-2.037,6.786
		c-0.305,2.577-0.162,5.319,0.425,8.134c0.282,1.364,0.68,2.773,1.18,4.191c5.879,16.427,20.946,26.022,29.404,30.279
		c11.818,5.949,24.412,8.425,35.461,6.974c1.762-0.227,3.545-0.592,5.459-1.116c1.709-0.459,3.383-1.067,4.991-1.809
		c2.608-1.195,4.899-2.715,6.817-4.522c1.748-1.669,3.174-3.58,4.226-5.669C876.121,961.753,863.107,939.618,839.417,927.694z
		 M795.799,955.635l-0.211-4.65l58.06-2.623l0.212,4.65L795.799,955.635z"/>
	<path class="st0" d="M802.441,1001.145c-0.105-0.053-0.1-0.057-0.203-0.112c-0.129-0.062-0.157-0.069-0.283-0.133
		c-13.42-6.754-23.917-16.875-29.516-27.994l-4.337,8.615c4.386,11.305,14.966,22.032,28.789,28.989
		c13.696,6.894,29.097,9.478,39.868,5.872l4.076-8.099C828.773,1010.008,815.477,1007.705,802.441,1001.145z"/>
	<path class="st0" d="M795.49,1015.017c-13.535-6.813-24.391-17.209-29.939-28.427l-4.359,8.663
		c2.871,7.64,8.127,14.362,16.098,20.895c0.537,0.44,1.054,0.852,1.611,1.283c0.77,0.587,1.652,1.202,2.463,1.778
		c4.754,3.363,10.559,6.424,15.937,8.455c2.367,0.899,4.716,1.668,6.946,2.268c0.607,0.159,1.235,0.324,1.854,0.467
		c0.563,0.139,1.088,0.248,1.622,0.36c1.243,0.245,2.022,0.264,3.153,0.443c6.874,1.027,14.429,1.268,18.849-0.841l4.228-8.397
		C821.83,1023.802,808.578,1021.603,795.49,1015.017z"/>
	<rect x="647" y="570" class="st0" width="20" height="13"/>
	<rect x="677" y="593" class="st0" width="20" height="14"/>
	<rect x="707" y="570" class="st0" width="19" height="13"/>
	<rect x="647" y="593" class="st0" width="20" height="14"/>
	<rect x="677" y="570" class="st0" width="20" height="13"/>
	<rect x="707" y="593" class="st0" width="19" height="14"/>
	<path class="st0" d="M1417.408,1834.005c-0.108,0.065-0.22,0.131-0.33,0.187c-0.55,0.304-1.122,0.562-1.71,0.768
		c-0.128,0.047-0.256,0.092-0.387,0.131c-0.124,0.039-0.248,0.079-0.375,0.115c-0.014,0.003-0.026,0.01-0.043,0.01
		c-0.114,0.032-0.229,0.062-0.344,0.092c-0.137,0.035-0.277,0.064-0.418,0.094c-0.157,0.033-0.313,0.062-0.471,0.088
		c-0.147,0.027-0.298,0.047-0.444,0.066c-0.043,0.006-0.086,0.01-0.125,0.016c-0.091,0.01-0.183,0.02-0.274,0.026
		c-0.104,0.013-0.209,0.021-0.313,0.026c-0.278,0.02-0.557,0.029-0.834,0.029c-0.278,0-0.556-0.01-0.834-0.029
		c-0.104-0.006-0.209-0.014-0.313-0.026c-0.092-0.007-0.184-0.017-0.275-0.026c-0.039-0.006-0.078-0.01-0.12-0.016
		c-0.15-0.02-0.298-0.039-0.448-0.066c-0.157-0.025-0.313-0.055-0.471-0.088c-0.141-0.029-0.281-0.059-0.419-0.094
		c-0.114-0.03-0.229-0.06-0.343-0.092c-0.017,0-0.03-0.007-0.043-0.01c-0.127-0.036-0.251-0.076-0.376-0.115
		c-0.131-0.039-0.258-0.084-0.386-0.131c-0.393-0.137-0.774-0.297-1.15-0.48c-0.079-0.035-0.154-0.072-0.229-0.111
		c-0.098-0.049-0.196-0.101-0.291-0.153c-0.144-0.075-0.284-0.157-0.425-0.241c-0.003,0-0.007-0.004-0.01-0.008
		c-0.017-0.006-0.032-0.02-0.052-0.029c-0.017-0.01-0.033-0.02-0.05-0.029c-1.592,1.622-2.488,3.789-2.488,6.102
		c0,4.809,3.914,8.723,8.724,8.723s8.723-3.914,8.723-8.723c0-2.312-0.896-4.479-2.488-6.102
		C1417.52,1833.939,1417.464,1833.975,1417.408,1834.005z"/>
	<polygon class="st0" points="1423.51,1291 1423.54,1302.18 1436.46,1291 	"/>
	<path class="st0" d="M1471.24,1238c-4.96,9-14.36,16.49-25.11,16.49c-10.85,0-20.33-7.49-25.34-16.49h-29.55
		c-4.961,9-14.36,16.49-25.11,16.49c-10.851,0-20.33-7.49-25.34-16.49H1310v82h81.141l-44.111-39h115.841l-44.11,39H1502v-82l0,0
		H1471.24z"/>
	<polygon class="st0" points="1395,1310 1404.67,1318.36 1413.375,1311 1413.51,1291 1395,1291 	"/>
	<path class="st0" d="M1310,1227.438l26.863-3.326c-0.023-0.341,0.065-0.678,0.052-1.021c-0.011-0.01,0.052-0.02,0.062-0.029
		c-0.03-0.181-0.009-0.371-0.009-0.561c0-0.1,0.016-0.2,0.035-0.29c-0.01-0.01-0.002-0.021,0.008-0.03
		c-0.01-0.01,0.004,0.23,0.004,0.23c0.17-2.6,2.344-4.41,4.984-4.41h48c2.641,0,4.811,1.811,4.98,4.41c0,0,0.01-0.115,0-0.105
		c0.01,0.01,0.01-0.042,0-0.032c0.01,0.29,0,0.538-0.021,0.819l22.181-1.409c0.495-2.235,2.479-3.683,4.859-3.683h48
		c2.64,0,4.81,1.811,4.98,4.41c0,0,0.01-0.115,0-0.105c0.01,0.01,0.01-0.042,0-0.032c0.004,0.112-0.006,0.439-0.008,0.55L1502,1228
		l0,0v-36h-192V1227.438z"/>
	<path class="st0" d="M1288.75,1260.38c0,6.82,5.25,12.94,11.25,16.25v-32.72C1294,1247.26,1288.75,1253.46,1288.75,1260.38z"/>
	<path class="st0" d="M1474.685,1226.163c-0.058,0.447-0.108,0.896-0.185,1.337
		C1474.577,1227.058,1474.635,1226.611,1474.685,1226.163z"/>
	<polygon class="st0" points="1385,1291 1373.439,1291 1385,1301.16 	"/>
	<path class="st0" d="M1400.815,1829.414c-0.02-0.035-0.04-0.068-0.06-0.104c-0.068-0.131-0.137-0.258-0.199-0.39
		c-0.072-0.15-0.144-0.297-0.209-0.447c-0.124-0.285-0.238-0.572-0.34-0.866c-0.017-0.042-0.029-0.085-0.043-0.131
		c-0.039-0.108-0.071-0.216-0.104-0.327c-0.013-0.032-0.022-0.065-0.029-0.102c-0.032-0.104-0.062-0.209-0.089-0.316
		c-0.019-0.062-0.035-0.125-0.049-0.187c-0.003-0.007-0.006-0.017-0.006-0.026c-0.069-0.284-0.128-0.575-0.177-0.867
		c-0.026-0.146-0.046-0.297-0.065-0.443c-0.007-0.043-0.01-0.086-0.017-0.125c-0.01-0.092-0.02-0.183-0.026-0.274
		c-0.013-0.104-0.02-0.209-0.025-0.313c-0.02-0.278-0.03-0.557-0.03-0.834c0-0.278,0.011-0.557,0.03-0.834
		c0.006-0.104,0.013-0.209,0.025-0.313c0.007-0.092,0.017-0.184,0.026-0.274c0.007-0.04,0.01-0.079,0.017-0.121
		c0.02-0.15,0.039-0.298,0.065-0.448c0.049-0.291,0.107-0.582,0.177-0.866c0-0.01,0.003-0.02,0.006-0.026
		c0.014-0.062,0.03-0.124,0.049-0.187c0.026-0.107,0.057-0.213,0.089-0.316c0.007-0.037,0.017-0.069,0.029-0.102
		c0.033-0.111,0.065-0.22,0.104-0.327c0.014-0.046,0.026-0.089,0.043-0.131c0.156-0.448,0.34-0.886,0.549-1.314
		c0.075-0.147,0.15-0.294,0.229-0.438c0.075-0.144,0.156-0.284,0.241-0.425c0-0.003,0.004-0.007,0.007-0.01
		c0.01-0.017,0.02-0.036,0.029-0.052c0.01-0.018,0.02-0.033,0.029-0.049c-1.621-1.593-3.789-2.488-6.101-2.488
		c-4.81,0-8.723,3.913-8.723,8.723c0,4.809,3.913,8.723,8.723,8.723c2.312,0,4.479-0.896,6.101-2.488
		c-0.036-0.059-0.071-0.117-0.107-0.18C1400.926,1829.617,1400.867,1829.516,1400.815,1829.414z"/>
	<path class="st0" d="M1427.688,1814.938c-2.312,0-4.479,0.896-6.102,2.488c0.036,0.059,0.072,0.117,0.108,0.18
		c0.052,0.088,0.104,0.176,0.153,0.268c0.043,0.078,0.085,0.156,0.124,0.235c0.017,0.022,0.026,0.049,0.04,0.071
		c0.055,0.105,0.107,0.21,0.156,0.318c0.18,0.369,0.337,0.748,0.471,1.134c0.046,0.128,0.092,0.255,0.131,0.386
		c0.04,0.125,0.079,0.248,0.114,0.376c0.004,0.013,0.011,0.026,0.011,0.043c0.032,0.114,0.062,0.229,0.091,0.343
		c0.036,0.138,0.065,0.278,0.095,0.419c0.033,0.157,0.062,0.313,0.089,0.471c0.026,0.15,0.046,0.298,0.065,0.448
		c0.007,0.042,0.01,0.081,0.016,0.121c0.011,0.091,0.021,0.183,0.026,0.274c0.014,0.104,0.021,0.209,0.026,0.313
		c0.02,0.277,0.029,0.556,0.029,0.834c0,0.277-0.01,0.556-0.029,0.834c-0.006,0.104-0.013,0.209-0.026,0.313
		c-0.006,0.092-0.016,0.183-0.026,0.274c-0.006,0.039-0.009,0.082-0.016,0.125c-0.02,0.146-0.039,0.297-0.065,0.443
		c-0.026,0.158-0.056,0.314-0.089,0.472c-0.029,0.141-0.059,0.28-0.095,0.418c-0.029,0.114-0.059,0.229-0.091,0.344
		c0,0.017-0.007,0.029-0.011,0.042c-0.035,0.128-0.074,0.252-0.114,0.377c-0.039,0.131-0.085,0.258-0.131,0.385
		c-0.137,0.393-0.297,0.775-0.48,1.151c-0.035,0.079-0.071,0.153-0.111,0.229c-0.049,0.098-0.101,0.195-0.153,0.29
		c-0.075,0.144-0.157,0.284-0.242,0.426c0,0.003-0.003,0.007-0.007,0.009c-0.006,0.017-0.019,0.033-0.029,0.053
		c-0.009,0.017-0.02,0.033-0.029,0.049c1.622,1.593,3.79,2.488,6.102,2.488c4.81,0,8.723-3.914,8.723-8.723
		C1436.41,1818.851,1432.497,1814.938,1427.688,1814.938z"/>
	<path class="st0" d="M1405.271,1813.315c0.121-0.075,0.245-0.144,0.373-0.213c0.144-0.078,0.287-0.153,0.438-0.226
		c0.147-0.072,0.295-0.144,0.445-0.209c0.284-0.125,0.571-0.238,0.866-0.34c0.042-0.017,0.085-0.029,0.131-0.043
		c0.107-0.039,0.216-0.072,0.327-0.104c0.032-0.013,0.064-0.022,0.101-0.029c0.104-0.032,0.21-0.062,0.317-0.089
		c0.062-0.02,0.124-0.035,0.187-0.049c0.007-0.003,0.017-0.006,0.026-0.006c0.284-0.068,0.575-0.128,0.866-0.177
		c0.15-0.026,0.298-0.046,0.448-0.065c0.042-0.007,0.081-0.01,0.12-0.017c0.092-0.01,0.184-0.02,0.275-0.026
		c0.104-0.013,0.209-0.02,0.313-0.025c0.278-0.02,0.556-0.029,0.834-0.029c0.277,0,0.556,0.01,0.834,0.029
		c0.104,0.006,0.209,0.013,0.313,0.025c0.092,0.007,0.184,0.017,0.274,0.026c0.039,0.007,0.082,0.01,0.125,0.017
		c0.146,0.02,0.297,0.039,0.444,0.065c0.291,0.049,0.582,0.108,0.866,0.177c0.01,0,0.02,0.003,0.026,0.006
		c0.062,0.014,0.124,0.029,0.187,0.049c0.107,0.027,0.212,0.057,0.316,0.089c0.036,0.007,0.069,0.017,0.102,0.029
		c0.111,0.032,0.219,0.065,0.327,0.104c0.046,0.014,0.089,0.026,0.131,0.043c0.448,0.156,0.886,0.34,1.314,0.549
		c0.146,0.075,0.294,0.15,0.438,0.229c0.145,0.076,0.285,0.158,0.426,0.242c0.003,0,0.006,0.004,0.01,0.007
		c0.016,0.01,0.036,0.02,0.052,0.029c0.017,0.01,0.033,0.02,0.049,0.03c1.593-1.622,2.488-3.79,2.488-6.102
		c0-4.81-3.913-8.723-8.723-8.723s-8.724,3.913-8.724,8.723c0,2.312,0.896,4.479,2.488,6.102
		C1405.16,1813.381,1405.216,1813.345,1405.271,1813.315z"/>
	<path class="st0" d="M1071.523,2058.697c-0.724-2.388-1.541-4.459-2.561-6.334l-0.637-1.197l6.516-11.131l-7.311-7.327
		l-11.16,6.503l-1.191-0.641c-1.736-0.934-3.678-1.698-6.297-2.48l-1.297-0.041L1044.29,2024h-10.376l-3.301,12.049l-1.295,0.214
		c-2.385,0.713-4.445,1.458-6.302,2.454l-1.194,0.599l-11.172-6.556l-7.326,7.306l6.477,11.114l-0.647,1.191
		c-1.331,2.452-2.218,4.483-2.79,6.397l-0.673,1.3l-12.69,3.239v10.358l12.624,3.227l0.526,1.314c0.611,2.1,1.604,4.296,2.808,6.527
		l0.676,1.188l-6.36,11.008l7.356,7.337l10.98-6.385l1.197,0.652c2.436,1.329,4.584,2.262,6.568,2.849l1.308,0.312l3.239,12.304
		h10.359l3.235-12.303l1.307-0.35c2.111-0.627,4.32-1.546,6.563-2.77l1.192-0.643l10.967,6.359l7.336-7.346l-6.408-11.016
		l0.641-1.189c0.955-1.777,1.764-3.834,2.541-6.472l0.184-1.302l12.16-3.296v-10.377l-12.227-3.313L1071.523,2058.697z
		 M1039.103,2095.337c-14.738,0-26.729-11.991-26.729-26.729s11.991-26.729,26.729-26.729c14.739,0,26.729,11.99,26.729,26.729
		S1053.842,2095.337,1039.103,2095.337z"/>
	<path class="st0" d="M1418.646,1828.424c0.93-1.412,1.416-3.047,1.416-4.764c0-1.962-0.634-3.812-1.838-5.353
		c-0.396-0.507-0.836-0.961-1.316-1.363l-0.217-0.17c-1.539-1.203-3.39-1.837-5.352-1.837s-3.812,0.634-5.353,1.837
		c-0.572,0.441-1.082,0.954-1.53,1.53l-0.003,0.003c-0.15,0.19-0.291,0.386-0.422,0.589c-0.929,1.412-1.416,3.047-1.416,4.764
		c0,1.961,0.635,3.812,1.838,5.352c0.396,0.508,0.834,0.961,1.317,1.363l0.216,0.17c1.54,1.204,3.391,1.838,5.353,1.838
		s3.812-0.634,5.352-1.838c0.569-0.441,1.083-0.954,1.53-1.529l0.003-0.004C1418.375,1828.822,1418.517,1828.627,1418.646,1828.424z
		"/>
	<rect x="802" y="489" class="st0" width="7" height="48"/>
	<path class="st0" d="M1039.103,2046.71c-12.074,0-21.897,9.823-21.897,21.897s9.823,21.897,21.897,21.897
		s21.897-9.823,21.897-21.897S1051.177,2046.71,1039.103,2046.71z"/>
	<path class="st0" d="M311.451,2338.808c-0.049-0.058-0.094-0.118-0.142-0.177c-0.06-0.069-0.121-0.137-0.179-0.206
		c-6.217-7.423-9.583-15.779-10.414-24.215l-4.766,3.992c-0.162,7.963,3.352,17.002,9.756,24.648
		c6.346,7.576,15.02,13.3,22.214,13.796l4.48-3.753C324.901,2350.931,317.49,2346.018,311.451,2338.808z"/>
	<path class="st0" d="M1366.719,191.733l16.521-34.178l-21.329-31.404l-37.851,2.774l-16.521,34.178l21.33,31.404L1366.719,191.733z
		 M1323.467,149.729c5.846-12.088,20.436-17.167,32.525-11.322c12.088,5.846,17.167,20.437,11.321,32.525
		c-5.846,12.088-20.437,17.167-32.524,11.321C1322.7,176.408,1317.621,161.817,1323.467,149.729z"/>
	<path class="st0" d="M1363.259,168.971c4.765-9.853,0.625-21.745-9.228-26.51c-9.854-4.764-21.745-0.625-26.51,9.228
		c-4.765,9.853-0.625,21.745,9.228,26.509S1358.494,178.824,1363.259,168.971z"/>
	<path class="st0" d="M1411.131,809.09l-36.939,59.667l11.904,7.369l36.913-59.626l1.608,0.396
		c9.611,2.776,18.633,0.26,22.609-6.165c2.365-3.819,2.661-8.65,1.014-13.586c-6.238,5.965-15.858,7.137-23.517,2.396
		c-7.591-4.699-10.833-13.769-8.362-21.981c-5.053,0.764-9.124,3.202-11.457,6.971c-3.948,6.377-1.914,15.712,4.748,23.036
		L1411.131,809.09z"/>
	<path class="st0" d="M514.717,1050.145c-0.879-2.898-1.87-5.413-3.107-7.689l-0.773-1.453l7.91-13.512l-8.876-8.895l-13.548,7.894
		l-1.445-0.776c-2.108-1.134-4.466-2.062-7.646-3.012l-1.573-0.562L481.657,1007h-12.595l-4.007,15.139l-1.573,0.517
		c-2.895,0.863-5.397,1.896-7.65,3.107l-1.449,0.789l-13.562-7.924l-8.895,8.883l7.863,13.499l-0.786,1.451
		c-1.615,2.977-2.691,5.446-3.388,7.769l-0.512,1.579L420,1055.742v12.574l15.022,3.918l0.485,1.595
		c0.744,2.549,1.872,5.215,3.333,7.923l0.784,1.443l-7.741,13.363l8.921,8.906l13.325-7.75l1.451,0.793
		c2.956,1.612,5.563,2.744,7.973,3.457l1.585,0.74l3.933,15.295h12.575l3.928-15.295l1.587-0.604
		c2.563-0.759,5.243-1.966,7.967-3.452l1.448-0.824l13.312,7.695l8.906-8.928l-7.778-13.377l0.777-1.448
		c1.159-2.156,2.14-4.655,3.083-7.856l0.293-1.581l14.83-4.002v-12.597l-14.91-4.022L514.717,1050.145z M475.359,1094.623
		c-17.892,0-32.448-14.556-32.448-32.447c0-17.893,14.556-32.448,32.448-32.448c17.892,0,32.448,14.556,32.448,32.448
		C507.808,1080.067,493.251,1094.623,475.359,1094.623z"/>
	<path class="st0" d="M1783.391,257.142c-8.743,5.267-17.926,7.501-26.173,6.437l3.235,5.37c7.751,1.642,17.594-0.513,26.271-5.695
		c3.568-2.169,6.906-4.841,9.678-7.732c0.002-0.002,0.003-0.004,0.006-0.005c0.18-0.188,0.349-0.38,0.522-0.569
		c2.582-2.856,4.632-5.94,6.004-9.089c0.28-0.717,0.522-1.43,0.695-2.132l-3.01-4.996c-0.023,0.052-0.043,0.108-0.067,0.16
		C1797.302,245.951,1791.206,252.434,1783.391,257.142z"/>
	<path class="st0" d="M364.758,1452.607l41.098-23.729l-0.007-47.469l-41.106-23.74l-41.098,23.729l0.007,47.469L364.758,1452.607z
		 M364.75,1374.688c16.791,0,30.451,13.66,30.451,30.45c0,16.791-13.66,30.451-30.451,30.451s-30.451-13.66-30.451-30.451
		C334.3,1388.349,347.96,1374.688,364.75,1374.688z"/>
	<path class="st0" d="M364.75,1429.957c13.685,0,24.819-11.133,24.819-24.818c0-13.685-11.134-24.818-24.819-24.818
		s-24.819,11.134-24.819,24.818C339.932,1418.824,351.065,1429.957,364.75,1429.957z"/>
	<path class="st0" d="M1813.229,1586.112c12.048,0,21.85-9.801,21.85-21.849s-9.802-21.85-21.85-21.85s-21.849,9.802-21.849,21.85
		S1801.182,1586.112,1813.229,1586.112z"/>
	<path class="st0" d="M2683.148,519.827l-0.104,1.208l-9.634,5.787l2.553,8.624l11.174-0.385l0.692,0.984
		c1.028,1.598,2.361,3.191,3.913,4.752l0.841,0.828l-2.592,10.735l7.93,4.297l7.567-8.021l1.156,0.249
		c2.354,0.506,4.373,0.752,6.17,0.753l1.213,0.1l5.778,9.606l8.625-2.553l-0.387-11.202l0.979-0.695
		c1.604-1.042,3.203-2.391,4.769-3.963l0.83-0.849l10.694,2.581l4.296-7.929l-8.051-7.595l0.24-1.149
		c0.356-1.715,0.522-3.626,0.52-6.014l-0.103-1.149l9.378-5.762l-2.558-8.64l-11.062,0.274l-0.592-0.991
		c-1.19-1.81-2.382-3.333-3.692-4.643l-0.826-0.84l2.683-10.874l-7.894-4.298l-7.689,8.165l-1.149-0.239
		c-1.676-0.349-3.481-0.507-5.854-0.513l-1.146,0.098l-5.769-9.406l-8.64,2.558l0.277,11.032l-0.997,0.591
		c-1.811,1.18-3.329,2.355-4.629,3.644l-0.84,0.815l-10.914-2.692l-4.298,7.894l8.133,7.66l-0.244,1.153
		C2683.392,516.182,2683.154,518.093,2683.148,519.827z M2706.245,497.696c12.271-3.633,25.21,3.395,28.843,15.666
		s-3.395,25.21-15.666,28.843c-12.271,3.633-25.21-3.395-28.843-15.666C2686.946,514.268,2693.974,501.329,2706.245,497.696z"/>
	<path class="st0" d="M169.065,606.74c0.055-0.062,0.108-0.128,0.165-0.186c0.118-0.141,0.242-0.274,0.371-0.408
		c0.146-0.154,0.291-0.304,0.446-0.451c0.151-0.147,0.302-0.294,0.46-0.434c0.298-0.266,0.604-0.521,0.924-0.762
		c0.045-0.037,0.092-0.07,0.143-0.105c0.117-0.091,0.235-0.174,0.358-0.258c0.035-0.029,0.071-0.055,0.112-0.077
		c0.115-0.081,0.231-0.159,0.353-0.233c0.068-0.05,0.138-0.095,0.209-0.135c0.006-0.007,0.017-0.016,0.029-0.02
		c0.321-0.197,0.653-0.385,0.99-0.562c0.173-0.092,0.345-0.175,0.521-0.259c0.049-0.025,0.096-0.045,0.141-0.068
		c0.108-0.049,0.216-0.098,0.326-0.142c0.123-0.058,0.248-0.107,0.374-0.157c0.332-0.135,0.667-0.258,1.007-0.369
		c0.34-0.111,0.684-0.21,1.032-0.297c0.13-0.033,0.261-0.067,0.394-0.094c0.115-0.028,0.231-0.053,0.347-0.077
		c0.05-0.008,0.104-0.021,0.159-0.03c0.188-0.034,0.379-0.07,0.569-0.098c0.376-0.056,0.755-0.1,1.13-0.13
		c0.012-0.004,0.025-0.003,0.035-0.002c0.081-0.009,0.164-0.014,0.248-0.015c0.142-0.011,0.282-0.018,0.423-0.02
		c0.046-0.006,0.09-0.006,0.136-0.004c0.148-0.004,0.294-0.008,0.441-0.002c0.061-0.002,0.119-0.004,0.177,0
		c0.611,0.012,1.219,0.062,1.827,0.146c0.21,0.033,0.42,0.066,0.627,0.105c0.206,0.033,0.411,0.078,0.617,0.125
		c0.003,0,0.009,0.002,0.014,0.005c0.024,0.005,0.052,0.01,0.076,0.015c0.024,0.006,0.048,0.012,0.072,0.017
		c1.3-2.62,1.529-5.628,0.606-8.456c-1.921-5.882-8.271-9.105-14.153-7.186c-5.882,1.922-9.105,8.271-7.185,14.154
		C164.509,603.1,166.47,605.394,169.065,606.74z"/>
	<path class="st0" d="M1788.539,265.668c-0.065,0.04-0.132,0.075-0.197,0.113c-0.078,0.048-0.153,0.099-0.231,0.146
		c-8.294,4.997-17.069,7.032-25.532,6.55l3.209,5.325c7.842,1.39,17.315-0.687,25.858-5.833c8.466-5.1,15.459-12.786,17.061-19.818
		l-3.016-5.005C1802.593,254.251,1796.595,260.815,1788.539,265.668z"/>
	<path class="st0" d="M2718.231,538.182c10.053-2.976,15.811-13.577,12.834-23.629c-2.976-10.053-13.577-15.811-23.63-12.834
		c-10.053,2.976-15.81,13.576-12.834,23.629C2697.578,535.401,2708.179,541.158,2718.231,538.182z"/>
	<path class="st0" d="M1793.622,274.28c-8.366,5.041-17.93,7.486-25.947,6.655l3.226,5.354c5.266,0.99,10.748,0.428,17.049-1.674
		c0.425-0.142,0.95-0.357,1.378-0.513c0.585-0.218,1.224-0.489,1.817-0.732c3.467-1.437,7.131-3.55,10.087-5.785
		c1.304-0.981,2.531-2,3.625-3.01c0.296-0.277,0.606-0.565,0.896-0.853c0.269-0.26,0.518-0.514,0.762-0.766
		c0.562-0.593,0.856-1.023,1.344-1.578c2.922-3.395,5.626-7.42,6.053-10.588l-3.127-5.19
		C1807.721,262.781,1801.71,269.408,1793.622,274.28z"/>
	<path class="st0" d="M1797.179,1534.383l-1.19,0.625l-11.148-6.526l-7.311,7.296l6.463,11.093l-0.646,1.19
		c-1.327,2.447-2.212,4.476-2.784,6.384l-0.284,1.299l-12.277,3.232v10.335l12.211,3.22l0.331,1.312
		c0.611,2.095,1.505,4.285,2.706,6.512l0.626,1.187l-6.372,10.983l7.329,7.32l10.951-6.369l1.191,0.65
		c2.43,1.326,4.572,2.256,6.553,2.842l1.302,0.534l3.233,12.498h10.337l3.228-12.497l1.304-0.46
		c2.107-0.625,4.311-1.598,6.549-2.819l1.19-0.668l10.942,6.33l7.32-7.337l-6.395-10.994l0.64-1.188
		c0.953-1.773,1.759-3.826,2.534-6.458l0.17-1.3l12.119-3.289v-10.354l-12.186-3.307l-0.282-1.284
		c-0.722-2.382-1.514-4.45-2.531-6.32l-0.623-1.194l6.507-11.107l-7.292-7.311l-11.134,6.488l-1.188-0.638
		c-1.733-0.932-3.67-1.694-6.283-2.476l-1.293-0.419l-3.289-12.398h-10.354l-3.293,12.399l-1.293,0.401
		C1801.088,1532.512,1799.031,1533.388,1797.179,1534.383z M1813.229,1537.593c14.706,0,26.671,11.965,26.671,26.671
		s-11.965,26.671-26.671,26.671s-26.67-11.965-26.67-26.671S1798.523,1537.593,1813.229,1537.593z"/>
	<path class="st0" d="M191.623,619.691c0.572-2.099,0.515-4.293-0.17-6.393c-0.784-2.398-2.298-4.408-4.385-5.812
		c-0.687-0.462-1.408-0.842-2.156-1.142l-0.332-0.122c-2.364-0.856-4.881-0.893-7.28-0.109c-2.399,0.784-4.409,2.298-5.812,4.385
		c-0.523,0.769-0.942,1.601-1.261,2.482l-0.002,0.006c-0.108,0.292-0.202,0.588-0.281,0.888c-0.572,2.1-0.515,4.293,0.171,6.393
		c0.784,2.398,2.298,4.409,4.385,5.812c0.687,0.461,1.404,0.842,2.157,1.141l0.332,0.121c2.364,0.857,4.881,0.895,7.28,0.111
		c2.399-0.784,4.41-2.299,5.812-4.386c0.52-0.767,0.942-1.601,1.26-2.482l0.003-0.005
		C191.451,620.287,191.544,619.991,191.623,619.691z"/>
	<path class="st0" d="M479,1888.109V1859h-36.86C444.89,1874,460,1886.279,479,1888.109z"/>
	<path class="st0" d="M479,1898.26c-24-2.18-44.1-19.26-47.11-39.26h-19.77c-3,21-23.12,37.561-49.12,39.34V1919h116V1898.26z"/>
	<path class="st0" d="M402.721,1859H363v29.109C383,1886.25,399.82,1874,402.721,1859z"/>
	<path class="st0" d="M364,1993.58c0,33.8,23,61.68,52,65.05v-130.11C387,1931.891,364,1959.78,364,1993.58z"/>
	<path class="st0" d="M428.16,1929H426v129.81c31-2.359,54.14-30.46,54.14-64.979C480.14,1959.95,457.43,1932,428.16,1929z"/>
	<path class="st0" d="M475.359,1035.594c-14.657,0-26.582,11.924-26.582,26.582c0,14.657,11.925,26.582,26.582,26.582
		c14.658,0,26.582-11.925,26.582-26.582C501.941,1047.518,490.017,1035.594,475.359,1035.594z"/>
	<path class="st0" d="M197.294,599.586c-2.828,0.923-5.121,2.884-6.468,5.479c0.067,0.058,0.135,0.114,0.204,0.177
		c0.099,0.086,0.199,0.174,0.294,0.266c0.083,0.08,0.167,0.158,0.246,0.239c0.029,0.021,0.052,0.05,0.077,0.072
		c0.11,0.105,0.215,0.212,0.319,0.325c0.368,0.38,0.711,0.781,1.029,1.199c0.107,0.138,0.214,0.275,0.314,0.42
		c0.098,0.136,0.195,0.272,0.29,0.414c0.01,0.015,0.022,0.027,0.029,0.049c0.086,0.126,0.167,0.254,0.249,0.383
		c0.099,0.153,0.191,0.313,0.283,0.474c0.103,0.179,0.201,0.359,0.296,0.541c0.092,0.173,0.175,0.345,0.259,0.521
		c0.025,0.05,0.044,0.096,0.068,0.142c0.049,0.107,0.098,0.216,0.142,0.325c0.058,0.122,0.107,0.248,0.157,0.374
		c0.136,0.332,0.258,0.668,0.369,1.008c0.111,0.34,0.21,0.684,0.297,1.031c0.034,0.131,0.068,0.262,0.093,0.395
		c0.029,0.114,0.053,0.23,0.078,0.346c0.008,0.051,0.021,0.104,0.03,0.159c0.035,0.188,0.071,0.379,0.098,0.569
		c0.031,0.203,0.058,0.406,0.081,0.611c0.02,0.184,0.04,0.367,0.051,0.549c0.01,0.152,0.02,0.305,0.025,0.457
		c0.006,0.021,0.004,0.039,0.005,0.057c0.007,0.17,0.009,0.338,0.01,0.505c0.005,0.176,0,0.351-0.006,0.524
		c-0.011,0.535-0.054,1.066-0.128,1.6c-0.012,0.11-0.026,0.216-0.044,0.324c-0.021,0.139-0.046,0.279-0.072,0.417
		c-0.035,0.206-0.078,0.411-0.126,0.616c0.001,0.005-0.002,0.01-0.005,0.015c-0.001,0.022-0.01,0.048-0.015,0.076
		c-0.005,0.023-0.011,0.048-0.017,0.071c2.62,1.301,5.628,1.53,8.456,0.607c5.883-1.922,9.106-8.271,7.186-14.153
		S203.176,597.664,197.294,599.586z"/>
	<path class="st0" d="M303.727,2345.16c-6.272-7.488-10.165-16.559-10.582-24.609l-4.792,4.014
		c-0.165,5.356,1.237,10.687,4.286,16.587c0.206,0.397,0.5,0.884,0.719,1.281c0.306,0.544,0.672,1.134,1.004,1.683
		c1.955,3.204,4.609,6.498,7.273,9.073c1.171,1.137,2.366,2.192,3.533,3.117c0.32,0.249,0.652,0.511,0.982,0.754
		c0.298,0.226,0.587,0.432,0.874,0.635c0.673,0.463,1.144,0.688,1.766,1.083c3.806,2.363,8.2,4.414,11.396,4.346l4.646-3.891
		C317.265,2357.314,309.79,2352.398,303.727,2345.16z"/>
	<path class="st0" d="M170.209,628.024c-0.039-0.036-0.076-0.068-0.114-0.104c-0.136-0.133-0.271-0.261-0.399-0.396
		c-0.148-0.154-0.295-0.307-0.435-0.464c-0.266-0.298-0.521-0.604-0.762-0.924c-0.037-0.046-0.07-0.093-0.104-0.144
		c-0.092-0.115-0.175-0.234-0.259-0.357c-0.029-0.035-0.054-0.071-0.077-0.112c-0.082-0.114-0.16-0.231-0.234-0.353
		c-0.049-0.068-0.094-0.138-0.134-0.209c-0.007-0.006-0.015-0.017-0.019-0.029c-0.198-0.32-0.385-0.652-0.562-0.988
		c-0.09-0.17-0.174-0.346-0.257-0.518c-0.025-0.051-0.046-0.101-0.07-0.146c-0.049-0.107-0.097-0.215-0.142-0.325
		c-0.057-0.122-0.107-0.247-0.157-0.373c-0.135-0.332-0.258-0.668-0.369-1.009c-0.111-0.339-0.21-0.683-0.297-1.03
		c-0.034-0.131-0.067-0.262-0.093-0.396c-0.029-0.113-0.053-0.229-0.078-0.346c-0.008-0.051-0.019-0.1-0.028-0.154
		c-0.036-0.192-0.07-0.38-0.099-0.574c-0.056-0.375-0.101-0.755-0.13-1.131c-0.003-0.012-0.003-0.024-0.002-0.033
		c-0.009-0.082-0.014-0.164-0.015-0.248c-0.011-0.143-0.017-0.282-0.019-0.424c-0.006-0.046-0.007-0.09-0.004-0.135
		c-0.004-0.149-0.008-0.294-0.002-0.442c-0.002-0.061-0.003-0.118,0-0.177c0.013-0.61,0.062-1.219,0.147-1.827
		c0.033-0.21,0.066-0.419,0.105-0.627c0.034-0.206,0.079-0.411,0.126-0.616c-0.001-0.004,0.001-0.01,0.004-0.015
		c0.005-0.024,0.01-0.052,0.015-0.076c0.005-0.023,0.011-0.048,0.017-0.071c-2.619-1.301-5.628-1.529-8.456-0.606
		c-5.882,1.921-9.106,8.271-7.186,14.152c1.921,5.882,8.271,9.106,14.153,7.186c2.827-0.923,5.121-2.885,6.468-5.479
		c-0.068-0.059-0.135-0.115-0.204-0.178C170.426,628.229,170.314,628.127,170.209,628.024z"/>
	<path class="st0" d="M192.502,626.825c-0.055,0.062-0.109,0.128-0.165,0.187c-0.106,0.123-0.216,0.248-0.33,0.36
		c-0.55,0.591-1.147,1.136-1.785,1.622c-0.138,0.107-0.275,0.215-0.42,0.314c-0.136,0.098-0.272,0.195-0.414,0.29
		c-0.014,0.01-0.028,0.022-0.048,0.028c-0.127,0.087-0.255,0.168-0.383,0.25c-0.154,0.1-0.314,0.191-0.474,0.283
		c-0.179,0.103-0.359,0.201-0.541,0.296c-0.169,0.091-0.345,0.175-0.517,0.257c-0.05,0.025-0.101,0.047-0.146,0.07
		c-0.108,0.049-0.216,0.098-0.326,0.142c-0.122,0.058-0.248,0.107-0.373,0.157c-0.332,0.136-0.668,0.258-1.008,0.369
		c-0.339,0.111-0.683,0.211-1.031,0.297c-0.131,0.033-0.262,0.068-0.395,0.094c-0.114,0.028-0.23,0.053-0.347,0.077
		c-0.05,0.008-0.099,0.02-0.154,0.028c-0.192,0.037-0.38,0.07-0.574,0.1c-0.203,0.03-0.406,0.057-0.611,0.08
		c-0.184,0.02-0.368,0.04-0.55,0.051c-0.152,0.01-0.303,0.02-0.457,0.025c-0.021,0.006-0.039,0.004-0.056,0.004
		c-0.17,0.008-0.337,0.01-0.505,0.011c-0.176,0.005-0.35-0.001-0.524-0.006c-0.535-0.011-1.066-0.054-1.599-0.128
		c-0.11-0.013-0.216-0.026-0.324-0.045c-0.14-0.021-0.28-0.045-0.417-0.071c-0.206-0.034-0.411-0.079-0.616-0.126
		c-0.004,0.001-0.009-0.002-0.015-0.005c-0.023-0.001-0.048-0.011-0.076-0.015c-0.023-0.006-0.047-0.012-0.071-0.017
		c-1.3,2.62-1.53,5.628-0.606,8.456c1.921,5.883,8.27,9.105,14.152,7.186c5.882-1.922,9.106-8.271,7.186-14.154
		C197.058,630.467,195.097,628.174,192.502,626.825z"/>
	<path class="st0" d="M319.08,2332.405c-6.554-7.825-10.179-16.553-10.401-24.865l-4.806,4.026
		c-0.426,7.911,3.223,17.303,9.683,25.077c2.694,3.19,5.849,6.075,9.133,8.367c0.003,0.002,0.005,0.003,0.007,0.005
		c0.213,0.148,0.429,0.285,0.643,0.429c3.221,2.109,6.584,3.659,9.907,4.528c0.752,0.166,1.494,0.295,2.215,0.357l4.471-3.744
		c-0.055-0.016-0.113-0.026-0.169-0.043C332.285,2344.421,324.938,2339.399,319.08,2332.405z"/>
	<path class="st0" d="M316.844,2293.854c-1.155,0.967-2.144,2.143-2.938,3.494c-0.838,1.448-1.454,3.107-1.826,4.924
		c-0.181,0.879-0.307,1.814-0.371,2.78c-0.715,11.224,5.752,20.749,9.67,25.427c5.476,6.538,12.297,11.219,19.206,13.181
		c1.1,0.315,2.249,0.555,3.515,0.733c1.129,0.164,2.275,0.231,3.417,0.203c1.848-0.041,3.592-0.355,5.188-0.936
		c1.461-0.541,2.792-1.309,3.948-2.276c8.454-7.081,6.403-23.503-4.573-36.607C341.106,2291.672,325.298,2286.772,316.844,2293.854z
		 M354.165,2323.446l-35.03-13.271l1.063-2.807l35.029,13.271L354.165,2323.446z"/>
	<path class="st0" d="M1512,1242.62v35.24c9-2.86,14.25-9.83,14.25-17.74C1526.25,1252.32,1521,1245.439,1512,1242.62z"/>
	<path class="st0" d="M1747.955,256.841c1.302,1.052,2.846,1.917,4.582,2.564c0.841,0.315,1.745,0.583,2.69,0.796
		c10.978,2.439,21.388-2.48,26.615-5.629c7.305-4.401,12.982-10.417,15.987-16.941c0.481-1.038,0.896-2.136,1.268-3.359
		c0.337-1.09,0.58-2.212,0.729-3.344c0.245-1.833,0.203-3.604-0.124-5.271c-0.309-1.527-0.861-2.96-1.639-4.252
		c-5.691-9.446-22.232-9.955-36.875-1.134c-14.642,8.821-21.923,23.683-16.232,33.128
		C1745.733,254.689,1746.742,255.847,1747.955,256.841z M1777.348,219.611l2.608,1.483l-18.52,32.561l-2.608-1.483L1777.348,219.611
		z"/>
	<path class="st0" d="M2333.4,365.98c1.39-1.08,2.58-2.41,3.5-3.92c1.35-2.21,2.13-4.8,2.13-7.56c0-8.01-6.521-14.53-14.53-14.53
		c-3.51,0-6.75,1.26-9.27,3.35c-1.23,1.03-2.301,2.25-3.141,3.63c-0.67,1.1-1.2,2.29-1.56,3.55c-0.36,1.27-0.561,2.61-0.561,4
		c0,2.14,0.471,4.17,1.3,6c1.45,3.2,4.03,5.78,7.23,7.23c1.83,0.83,3.86,1.3,6,1.3c1.39,0,2.73-0.2,4-0.56
		C2330.3,367.95,2331.96,367.1,2333.4,365.98z"/>
	<path class="st0" d="M2300.71,361H2143v142h175V378.29C2310,376.09,2302.91,369,2300.71,361z M2166.332,409.501
		c0-15.072,12.262-27.333,27.334-27.333c15.071,0,27.333,12.262,27.333,27.333c0,15.071-12.262,27.333-27.333,27.333
		C2178.594,436.834,2166.332,424.572,2166.332,409.501z M2241,480h-30c-2.762,0-5-2.238-5-5s2.238-5,5-5h30c2.762,0,5,2.238,5,5
		S2243.762,480,2241,480z M2263.666,436.834c-15.072,0-27.334-12.262-27.334-27.333c0-15.072,12.262-27.333,27.334-27.333
		c15.071,0,27.333,12.262,27.333,27.333C2290.999,424.572,2278.737,436.834,2263.666,436.834z"/>
	<path class="st0" d="M2365.32,404.58c-0.271-4.97-0.261-9.95,2.569-14.23l-9.56,11.31l-8.43,10l-13.261-36
		c-2.54,1.5-4.64,2.55-8.64,3.04v19.24c3,19.63,18.5,35.57,39.26,39.26c0.681,0.12,1.505,0.229,2.205,0.31
		c-0.53-2.609-0.947-5.529-1.417-8.729C2366.878,420.78,2365.77,412.66,2365.32,404.58z"/>
	<path class="st0" d="M2263.666,392.167c-9.558,0-17.334,7.776-17.334,17.333s7.776,17.333,17.334,17.333
		s17.333-7.775,17.333-17.333S2273.224,392.167,2263.666,392.167z"/>
	<rect x="2693" y="1321" class="st0" width="9" height="37"/>
	<rect x="2541" y="1321" class="st0" width="10" height="37"/>
	<polygon class="st0" points="2282.7,331.69 2301.51,334.96 2294.94,317.03 	"/>
	<path class="st0" d="M2350.879,1064.327c-3.058-1.094-6.349-0.935-9.246,0.404c0.02,0.095,0.039,0.19,0.057,0.289
		c0.027,0.142,0.056,0.283,0.077,0.427c0.019,0.125,0.038,0.248,0.052,0.37c0.012,0.038,0.012,0.078,0.019,0.114
		c0.024,0.164,0.044,0.328,0.058,0.494c0.063,0.573,0.092,1.149,0.086,1.723c0,0.19,0,0.381-0.01,0.572
		c-0.006,0.183-0.013,0.366-0.026,0.551c-0.002,0.021,0.001,0.04-0.007,0.062c-0.011,0.167-0.026,0.332-0.041,0.498
		c-0.018,0.198-0.046,0.398-0.072,0.599c-0.032,0.223-0.067,0.443-0.107,0.664c-0.036,0.211-0.079,0.414-0.125,0.623
		c-0.011,0.06-0.025,0.112-0.035,0.168c-0.03,0.126-0.061,0.251-0.095,0.375c-0.033,0.145-0.073,0.286-0.115,0.428
		c-0.104,0.377-0.224,0.749-0.355,1.117c-0.132,0.366-0.274,0.73-0.433,1.088c-0.059,0.136-0.117,0.271-0.184,0.404
		c-0.053,0.117-0.108,0.233-0.164,0.35c-0.028,0.049-0.052,0.104-0.081,0.157c-0.096,0.185-0.192,0.374-0.297,0.557
		c-0.109,0.195-0.222,0.389-0.339,0.581c-0.105,0.172-0.211,0.344-0.324,0.509c-0.094,0.138-0.186,0.274-0.283,0.41
		c-0.008,0.022-0.022,0.036-0.033,0.052c-0.107,0.151-0.219,0.298-0.33,0.443c-0.113,0.154-0.234,0.302-0.355,0.448
		c-0.367,0.454-0.76,0.885-1.18,1.295c-0.084,0.087-0.167,0.169-0.255,0.251c-0.111,0.104-0.227,0.211-0.341,0.312
		c-0.168,0.154-0.343,0.302-0.521,0.448c-0.001,0.003-0.007,0.007-0.014,0.01c-0.016,0.018-0.041,0.033-0.063,0.055
		c-0.021,0.017-0.041,0.034-0.062,0.052c1.391,2.872,3.834,5.082,6.892,6.177c6.361,2.275,13.389-1.049,15.665-7.41
		C2360.564,1073.632,2357.24,1066.604,2350.879,1064.327z"/>
	<path class="st0" d="M2193.666,392.167c-9.559,0-17.334,7.776-17.334,17.333s7.775,17.333,17.334,17.333
		c9.557,0,17.333-7.775,17.333-17.333S2203.223,392.167,2193.666,392.167z"/>
	<rect x="2591" y="1317" class="st0" width="60" height="42"/>
	<polygon class="st0" points="2353.42,391.97 2365.73,377.37 2346.93,374.01 	"/>
	<path class="st0" d="M2348.999,354.66c0,3.32-0.689,6.28-1.899,9.17l16.359,2.89c0-23.68-8.414-36.954-13.592-38.72
		c-5.863-2-15.446-0.167-22.732,2.14C2339.324,331.14,2348.999,342.1,2348.999,354.66z"/>
	<path class="st0" d="M2718.23,2239.18c-3.048,0-5.905,1.182-8.043,3.281c0.048,0.077,0.095,0.154,0.143,0.236
		c0.068,0.117,0.138,0.232,0.202,0.354c0.056,0.104,0.112,0.207,0.163,0.311c0.022,0.03,0.035,0.064,0.053,0.095
		c0.072,0.138,0.143,0.276,0.207,0.418c0.236,0.487,0.443,0.987,0.62,1.495c0.061,0.168,0.121,0.337,0.173,0.51
		c0.052,0.163,0.104,0.327,0.15,0.495c0.005,0.017,0.014,0.034,0.014,0.056c0.043,0.151,0.082,0.302,0.12,0.453
		c0.048,0.181,0.087,0.366,0.125,0.552c0.043,0.206,0.082,0.413,0.116,0.62c0.035,0.199,0.061,0.393,0.086,0.591
		c0.01,0.056,0.014,0.107,0.021,0.159c0.014,0.121,0.026,0.242,0.035,0.362c0.018,0.138,0.025,0.276,0.034,0.414
		c0.026,0.366,0.039,0.732,0.039,1.099s-0.013,0.732-0.039,1.1c-0.009,0.138-0.017,0.275-0.034,0.413
		c-0.009,0.121-0.021,0.241-0.035,0.362c-0.008,0.052-0.012,0.107-0.021,0.164c-0.025,0.193-0.051,0.392-0.086,0.586
		c-0.034,0.207-0.073,0.414-0.116,0.621c-0.038,0.185-0.077,0.37-0.125,0.551c-0.038,0.151-0.077,0.302-0.12,0.453
		c0,0.021-0.009,0.039-0.014,0.057c-0.047,0.168-0.099,0.331-0.15,0.494c-0.052,0.174-0.112,0.342-0.173,0.51
		c-0.181,0.517-0.392,1.021-0.634,1.517c-0.047,0.104-0.094,0.202-0.146,0.302c-0.064,0.129-0.133,0.259-0.202,0.384
		c-0.099,0.189-0.207,0.375-0.319,0.561c0,0.004-0.004,0.009-0.008,0.013c-0.009,0.021-0.026,0.043-0.039,0.068
		c-0.013,0.021-0.025,0.043-0.039,0.065c2.138,2.099,4.995,3.279,8.043,3.279c6.34,0,11.499-5.159,11.499-11.499
		S2724.57,2239.18,2718.23,2239.18z"/>
	<path class="st0" d="M2328.262,1084.684c-0.175,0.035-0.353,0.068-0.526,0.09c-0.87,0.142-1.748,0.213-2.624,0.207
		c-0.19,0-0.381,0-0.572-0.01c-0.184-0.007-0.367-0.013-0.552-0.026c-0.02-0.002-0.039,0.001-0.061-0.007
		c-0.167-0.011-0.332-0.026-0.498-0.041c-0.199-0.018-0.398-0.046-0.599-0.073c-0.223-0.031-0.443-0.066-0.664-0.106
		c-0.207-0.034-0.415-0.08-0.618-0.123c-0.061-0.012-0.118-0.028-0.174-0.037c-0.125-0.03-0.25-0.061-0.374-0.096
		c-0.145-0.032-0.287-0.073-0.428-0.114c-0.378-0.104-0.75-0.225-1.117-0.355c-0.367-0.132-0.73-0.275-1.088-0.433
		c-0.137-0.059-0.271-0.117-0.403-0.184c-0.118-0.053-0.234-0.108-0.352-0.164c-0.049-0.028-0.099-0.051-0.151-0.08
		c-0.19-0.097-0.375-0.192-0.562-0.298c-0.195-0.109-0.389-0.222-0.581-0.34c-0.172-0.104-0.345-0.21-0.509-0.323
		c-0.138-0.094-0.275-0.187-0.41-0.283c-0.022-0.008-0.036-0.022-0.053-0.033c-0.151-0.107-0.298-0.219-0.442-0.33
		c-0.154-0.113-0.302-0.234-0.448-0.355c-0.454-0.367-0.885-0.76-1.295-1.18c-0.088-0.084-0.17-0.167-0.251-0.255
		c-0.105-0.112-0.211-0.227-0.312-0.341c-0.155-0.168-0.302-0.343-0.448-0.521c-0.003-0.001-0.007-0.007-0.009-0.014
		c-0.02-0.017-0.034-0.041-0.056-0.063c-0.018-0.021-0.034-0.041-0.052-0.062c-2.872,1.391-5.082,3.834-6.177,6.892
		c-2.275,6.361,1.049,13.389,7.41,15.665c6.361,2.275,13.389-1.049,15.664-7.41c1.094-3.058,0.936-6.349-0.403-9.246
		C2328.439,1084.649,2328.35,1084.67,2328.262,1084.684z"/>
	<path class="st0" d="M2623.29,1392.64c1.44,0,2.81,0.78,3.83,1.71l41.52,38.65H2683v-160h-122v160h16.939l41.521-38.65
		C2620.48,1393.42,2621.85,1392.64,2623.29,1392.64z M2581,1286h80v10h-80V1286z M2581,1307h80v62h-80V1307z"/>
	<path class="st0" d="M2768.152,1019.396c-10.71,7.971-12.939,23.168-4.969,33.878c7.971,10.711,23.168,12.939,33.879,4.97
		c10.71-7.971,12.939-23.168,4.969-33.879C2794.061,1013.654,2778.863,1011.426,2768.152,1019.396z"/>
	<path class="st0" d="M2704.68,2264.316c-0.143,0.087-0.289,0.173-0.436,0.246c-0.725,0.4-1.479,0.741-2.254,1.013
		c-0.168,0.061-0.336,0.121-0.51,0.173c-0.163,0.052-0.326,0.104-0.494,0.15c-0.018,0.005-0.035,0.014-0.057,0.014
		c-0.151,0.043-0.302,0.082-0.453,0.12c-0.181,0.048-0.366,0.087-0.551,0.125c-0.207,0.043-0.414,0.082-0.621,0.116
		c-0.194,0.035-0.393,0.061-0.586,0.086c-0.057,0.01-0.112,0.014-0.164,0.021c-0.121,0.014-0.241,0.026-0.362,0.035
		c-0.138,0.018-0.275,0.025-0.413,0.034c-0.367,0.026-0.732,0.039-1.1,0.039c-0.366,0-0.732-0.013-1.099-0.039
		c-0.138-0.009-0.276-0.017-0.414-0.034c-0.12-0.009-0.241-0.021-0.362-0.035c-0.052-0.008-0.104-0.012-0.159-0.021
		c-0.198-0.025-0.392-0.051-0.591-0.086c-0.207-0.034-0.414-0.073-0.62-0.116c-0.186-0.038-0.371-0.077-0.552-0.125
		c-0.151-0.038-0.302-0.077-0.453-0.12c-0.021,0-0.039-0.009-0.056-0.014c-0.168-0.047-0.332-0.099-0.495-0.15
		c-0.173-0.052-0.342-0.112-0.51-0.173c-0.517-0.181-1.021-0.392-1.517-0.634c-0.104-0.047-0.202-0.094-0.302-0.146
		c-0.129-0.064-0.259-0.133-0.384-0.202c-0.189-0.099-0.374-0.207-0.56-0.319c-0.005,0-0.01-0.004-0.014-0.008
		c-0.021-0.009-0.043-0.026-0.068-0.039c-0.021-0.013-0.043-0.025-0.064-0.039c-2.1,2.138-3.281,4.995-3.281,8.043
		c0,6.34,5.16,11.499,11.5,11.499s11.5-5.159,11.5-11.499c0-3.048-1.182-5.905-3.28-8.043
		C2704.826,2264.23,2704.753,2264.278,2704.68,2264.316z"/>
	<path class="st0" d="M0,0v2553h3107V0H0z M2670.75,505.839l7.402-13.583l11.803,2.902c1.034-0.942,2.203-1.742,3.469-2.621
		l-0.299-11.929l14.823-4.388l6.234,10.167c1.626,0.041,3.014,0.109,4.332,0.319l8.313-8.86l13.576,7.377l-2.892,11.737
		c0.961,1.042,1.774,2.213,2.665,3.485l11.968-0.302l4.389,14.821l-10.132,6.222c-0.037,1.67-0.11,3.13-0.331,4.502l8.741,8.211
		l-7.361,13.597l-11.554-2.797c-1.188,1.123-2.366,2.223-3.589,3.092l0.418,12.104l-14.836,4.392l-6.246-10.382
		c-1.446-0.07-3.01-0.312-4.699-0.631l-8.176,8.635l-13.604-7.386l2.807-11.62c-1.104-1.18-2.19-2.357-3.047-3.57l-12.065,0.411
		l-4.394-14.838l10.419-6.26c0.071-1.38,0.309-2.868,0.621-4.526L2670.75,505.839z M1825.666,1527.479
		c1.777,0.574,3.284,1.226,4.668,1.888l12.051-6.99l12.553,12.587l-7.016,12.004c0.719,1.463,1.23,3.024,1.797,4.716l13.281,3.579
		v17.763l-13.189,3.55c-0.586,1.829-1.142,3.413-1.83,4.853l6.952,11.899l-12.544,12.58l-11.818-6.851
		c-1.675,0.85-3.333,1.796-4.963,2.354l-3.487,13.59h-17.78l-3.496-13.596c-1.57-0.547-3.214-1.383-4.972-2.286l-11.825,6.818
		l-12.581-12.591l6.884-11.895c-0.832-1.66-1.51-3.315-2.057-4.931l-13.293-3.486v-17.782l13.386-3.499
		c0.529-1.498,1.208-3.061,2.093-4.785l-6.981-11.979l12.569-12.554l12.052,7.049c1.446-0.701,2.99-1.444,4.671-1.999l3.559-13.484
		h17.765L1825.666,1527.479z M1759.641,217.701c16.059-9.675,34.447-8.708,40.992,2.156c0.955,1.586,1.633,3.34,2.012,5.213
		c0.392,2,0.443,4.099,0.155,6.251c-0.169,1.294-0.448,2.584-0.834,3.829l2.839,4.712l2.089,3.466l5.044,8.374l5.308,8.81
		l-0.095,0.519c-1.294,4.239-3.605,8.401-6.919,12.25c-0.518,0.592-0.997,1.144-1.544,1.724l-0.046,0.06
		c-0.266,0.272-0.519,0.538-0.797,0.807c-0.297,0.294-0.614,0.594-0.938,0.897c-1.175,1.086-2.464,2.158-3.846,3.199
		c-1.31,0.988-2.735,1.949-4.245,2.858c-2.126,1.281-4.305,2.388-6.476,3.287c-0.629,0.257-1.244,0.509-1.868,0.741
		c-0.464,0.169-0.909,0.329-1.359,0.479c-7.096,2.366-13.369,2.97-19.283,1.621l-0.836-0.014l-5.104-8.474l-5.215-8.655
		l-2.144-3.558l-3.297-5.472c-0.601-0.171-1.188-0.356-1.747-0.566c-2.038-0.76-3.864-1.785-5.425-3.047
		c-1.487-1.218-2.722-2.637-3.676-4.221C1735.842,244.083,1743.582,227.375,1759.641,217.701z M1652,566.348l30-14.643v-0.15
		l-30-14.642v-5.155l35,17.705v4.259l-35,17.78V566.348z M1400.858,782.025c3.847-6.213,10.889-9.777,19.505-9.663l4.161,0.022
		l-2.096,3.656c-3.796,6.732-1.645,15.18,4.914,19.24c6.609,4.092,15.156,2.221,19.467-4.254l2.334-3.511l2.062,3.799
		c4.058,7.739,4.263,15.841,0.379,22.114c-4.899,7.914-15.857,11.022-26.293,8.881l-37.577,60.698l-20.406-12.633l37.613-60.757
		C1397.516,800.686,1395.994,789.883,1400.858,782.025z M1321.139,124.625l43.037-3.155l24.252,35.705l-18.786,38.861l-43.038,3.155
		l-24.25-35.706L1321.139,124.625z M419,175.019l22-11.079v-0.114l-22-11.079v-3.9l26,13.396v3.223l-26,13.453V175.019z
		 M411.643,140h3.901l-15.828,41h-3.787L411.643,140z M366,162.357l26-13.51v3.9l-22,11.079v0.114l22,11.079v3.9l-26-13.51V162.357z
		 M364.743,1351.167l46.737,26.992l0.007,53.972l-46.73,26.979l-46.737-26.992l-0.008-53.972L364.743,1351.167z M205.567,624.922
		c-2.571,0.84-5.254,0.986-7.819,0.474c1.927,1.77,3.393,4.021,4.232,6.593c2.642,8.09-1.789,16.815-9.878,19.457
		c-8.089,2.642-16.815-1.788-19.458-9.878c-0.839-2.571-0.985-5.254-0.473-7.819c-1.769,1.928-4.021,3.393-6.592,4.232
		c-8.09,2.641-16.816-1.789-19.458-9.879s1.789-16.816,9.878-19.457c2.571-0.84,5.254-0.985,7.82-0.474
		c-1.928-1.77-3.394-4.021-4.233-6.593c-2.642-8.09,1.789-16.815,9.878-19.457s16.816,1.788,19.458,9.879
		c0.84,2.57,0.986,5.253,0.474,7.819c1.77-1.928,4.021-3.394,6.592-4.233c8.09-2.642,16.816,1.789,19.458,9.879
		S213.657,622.28,205.567,624.922z M358.581,2343.684c-1.42,1.188-3.048,2.129-4.84,2.793c-1.915,0.695-3.982,1.071-6.151,1.117
		c-1.305,0.033-2.623-0.043-3.912-0.232l-4.218,3.533l-3.103,2.599l-7.494,6.276l-7.885,6.604l-0.527-0.014
		c-4.389-0.623-8.857-2.265-13.172-4.944c-0.664-0.42-1.284-0.809-1.941-1.259l-0.066-0.036c-0.311-0.221-0.612-0.43-0.921-0.664
		c-0.336-0.248-0.681-0.515-1.031-0.787c-1.254-0.993-2.512-2.101-3.755-3.306c-1.178-1.141-2.348-2.401-3.479-3.753
		c-1.594-1.902-3.023-3.885-4.247-5.891c-0.352-0.582-0.695-1.15-1.021-1.731c-0.238-0.433-0.465-0.848-0.683-1.269
		c-3.434-6.646-4.998-12.75-4.578-18.801l-0.116-0.829l7.584-6.353l7.746-6.487l3.184-2.667l4.898-4.103
		c0.076-0.62,0.168-1.229,0.289-1.814c0.437-2.13,1.168-4.093,2.173-5.83c0.975-1.657,2.186-3.096,3.604-4.283
		c9.722-8.144,27.426-3.076,39.463,11.296C366.42,2317.223,368.303,2335.541,358.581,2343.684z M528.52,1999.44l-37.5,0.56
		c-0.01,0-0.01,0-0.02,0c-0.28,0-0.55-0.28-0.81-0.33c-0.36,5.17-1.19,10.075-2.45,14.905c0.52,0.109,1.02,0.247,1.5,0.537
		l33.95,20.389c2.369,1.42,3.13,4.484,1.71,6.845c-0.94,1.56-2.591,2.422-4.29,2.422c-0.88,0-1.771-0.233-2.57-0.724l-33.41-20.102
		c-10.54,26.5-34.45,45.028-62.19,45.028c-27.67,0-51.52-18.451-62.1-44.84l-33.1,19.909c-0.801,0.49-1.69,0.72-2.57,0.72
		c-1.689,0-3.35-0.87-4.29-2.43c-1.42-2.36-0.659-5.44,1.71-6.86l33.95-20.42c0.36-0.22,0.75-0.39,1.14-0.5
		c-1.3-4.93-2.14-10.08-2.49-15.37c-0.06,0.011-0.109,0.261-0.17,0.261l-37.5,0.56c-0.01,0-0.01,0-0.02,0c-2.75,0-4.99-2.86-5-5.61
		c-0.01-2.76,2.221-4.614,4.98-4.625l37.5,0.235c0.01,0,0.01,0,0.02,0h0.109c0.271-6,1.16-11.78,2.591-17.2
		c-0.4-0.109-0.79-0.405-1.16-0.635l-33.95-20.482c-2.369-1.431-3.13-4.531-1.71-6.892c1.431-2.369,4.5-3.146,6.86-1.726
		l33.119,20.162c5.801-14.45,15.591-27.228,27.811-34.228H353v-80h37.33l-20.25-17.62l6.51-7.465L405.68,1849h33.641l29.09-25.21
		l6.51,7.715L454.67,1849H489v80h-32.28c12.271,7,22.09,19.87,27.88,34.41l33.44-20.235c2.36-1.42,5.43-0.722,6.86,1.647
		c1.42,2.36,0.659,5.398-1.71,6.829l-33.95,20.404c-0.48,0.29-1,0.492-1.521,0.603c1.41,5.369,2.28,10.985,2.561,16.786
		c0.229-0.03,0.46,0.197,0.7,0.197l37.5,0.358c0.01,0,0.01,0,0.02,0c2.75,0,4.99,1.635,5,4.395
		C533.51,1997.155,531.28,1999.43,528.52,1999.44z M536,1072.834l-16.092,4.319c-0.713,2.225-1.41,4.152-2.249,5.904l8.448,14.477
		l-15.269,15.306l-14.38-8.336c-2.038,1.033-4.057,2.233-6.039,2.912L486.176,1124h-21.632l-4.253-16.589
		c-1.91-0.667-3.91-1.707-6.048-2.807l-14.388,8.283l-15.306-15.323l8.375-14.475c-1.012-2.021-1.962-4.035-2.627-6.001
		L414,1072.846v-21.634l16.41-4.258c0.644-1.822,1.531-3.723,2.608-5.821l-8.463-14.574l15.308-15.272l14.669,8.575
		c1.76-0.854,3.644-1.27,5.689-1.945l4.333-15.916h21.612l4.323,15.91c2.164,0.699,3.997,1.246,5.681,2.052l14.661-8.627
		l15.271,15.254l-8.534,14.573c0.874,1.779,1.54,3.664,2.229,5.723l16.203,4.339V1072.834z M736,617h-99v-24h-62v-46h-17v-68h17v-39
		h60.49l-22.99-22.85c-1.971-1.94-2-5.225-0.07-7.195c1.94-1.97,5.11-2.062,7.07-0.123l28.67,28.379
		c0.471,0.46,0.84,0.789,1.08,1.789h77.5c0.28-1,0.69-1.47,1.24-1.97l31.33-28.295c2.06-1.84,5.22-1.732,7.069,0.318
		c1.841,2.05,1.67,5.438-0.38,7.278L741.04,440H802v39h17v68h-17v46h-66V617z M798,1527.17l-29,14.643v0.15l29,14.643v5.154
		l-35-17.855v-4.033l35-17.855V1527.17z M807.667,1565h-5.005l20.768-54h5.155L807.667,1565z M868,1543.979l-35,17.78v-5.154
		l30-14.643v-0.15l-30-14.643v-5.154l35,17.705V1543.979z M872.611,979.142c-1.292,2.566-3.01,4.918-5.155,6.965
		c-2.3,2.168-4.965,3.998-8.028,5.399c-1.837,0.848-4.119,1.368-5.618,2.121l-3.837,7.625l-2.823,5.608l-6.819,13.548l-7.174,14.255
		l-0.857,0.255c-6.635,1.809-14.107,2.168-21.899,1.002c-1.206-0.19-2.326-0.364-3.54-0.601l-0.116-0.012
		c-0.579-0.122-1.136-0.236-1.72-0.379c-0.633-0.146-1.285-0.314-1.951-0.488c-2.398-0.644-4.869-1.448-7.381-2.401
		c-2.379-0.901-4.819-1.979-7.262-3.207c-3.439-1.732-6.691-3.675-9.667-5.78c-0.858-0.613-1.692-1.209-2.513-1.838
		c-0.605-0.468-1.172-0.914-1.742-1.381c-8.977-7.356-14.932-15.081-18.053-23.959l-0.628-1.086l6.9-13.71l7.048-14.003l2.897-5.757
		l4.457-8.854c-0.575-1.082-0.563-1.879-0.751-2.786c-0.688-3.303-0.898-6.571-0.533-9.664c0.368-2.959,1.209-5.753,2.5-8.316
		c8.846-17.577,37.182-21.237,63.164-8.16C867.492,936.615,881.457,961.564,872.611,979.142z M1089,2077.388l-13.228,3.558
		c-0.587,1.832-1.147,3.421-1.839,4.863l6.966,11.926l-12.573,12.607l-11.845-6.865c-1.679,0.851-3.341,1.572-4.974,2.131
		l-3.495,13.393h-17.819l-3.504-13.396c-1.574-0.549-3.221-1.273-4.982-2.178l-11.852,6.89l-12.609-12.59l6.9-11.906
		c-0.834-1.664-1.896-3.315-2.442-4.935L988,2077.396v-17.82l13.797-3.508c0.53-1.5,1.4-3.066,2.287-4.795l-6.901-12.006
		l12.646-12.58l12.101,7.062c1.45-0.702,3.01-1.062,4.694-1.619l3.578-13.131h17.803l3.562,13.125
		c1.782,0.576,3.292,1.036,4.68,1.699l12.077-7.102l12.58,12.567l-7.031,12.006c0.721,1.466,1.241,3.019,1.81,4.716l13.319,3.574
		V2077.388z M1427.688,1835.652c-2.103,0-4.12-0.539-5.892-1.536c0.997,1.772,1.536,3.789,1.536,5.892
		c0,6.614-5.378,11.992-11.992,11.992s-11.993-5.378-11.993-11.992c0-2.103,0.54-4.119,1.537-5.892
		c-1.772,0.997-3.789,1.536-5.892,1.536c-6.614,0-11.992-5.378-11.992-11.992s5.378-11.992,11.992-11.992
		c2.103,0,4.119,0.539,5.892,1.536c-0.997-1.772-1.537-3.789-1.537-5.892c0-6.614,5.379-11.992,11.993-11.992
		s11.992,5.378,11.992,11.992c0,2.103-0.539,4.119-1.536,5.892c1.771-0.997,3.789-1.536,5.892-1.536
		c6.614,0,11.992,5.378,11.992,11.992S1434.302,1835.652,1427.688,1835.652z M1512,1288.29v32.62c0,4.74-3.53,9.09-8.5,9.09h-194
		c-4.971,0-9.5-4.35-9.5-9.09v-33.45c-12-4.07-21.25-14.67-21.25-27.08c0-12.53,9.25-23.22,21.25-27.33v-42.96
		c0-4.74,4.529-8.09,9.5-8.09h91.5v-19.26c-12-2.34-20.971-12.99-20.971-25.74c0-14.46,11.886-26.221,26.346-26.221
		s26.032,11.761,26.032,26.221c0,12.75-8.407,23.4-21.407,25.74V1182h92.5c4.97,0,8.5,3.35,8.5,8.09v42.17
		c14,3.25,24.25,14.471,24.25,27.86C1536.25,1273.62,1526,1285.02,1512,1288.29z M1617,536.913l-29,14.642v0.15l29,14.643v5.154
		l-35-17.855v-4.033l35-17.855V536.913z M1621.613,574l20.768-54h5.155l-20.918,54H1621.613z M1876,2327.25
		c-7.52,0-13.81-5.25-15.2-12.25H1843v78h-162v-78h-15.8c-1.39,7-7.681,12.25-15.2,12.25c-8.55,0-15.5-7.075-15.5-15.625
		s6.95-15.312,15.5-15.312c7.87,0,14.391,5.688,15.37,13.688h16.129c-0.001-1,0.003-2.085,0.051-3
		c1.011-20.27,9.421-39.285,23.82-53.654c14.68-14.641,34.63-23.115,54.63-23.796v-16.35c-7-1.39-12.25-7.681-12.25-15.2
		c0-8.55,7.075-15.5,15.625-15.5s15.312,6.95,15.312,15.5c0,7.87-5.688,14.391-13.688,15.37v16.159
		c21,0.561,40.29,8.931,55.08,23.691c14.42,14.369,22.475,33.51,23.405,53.779c0.05,0.92,0.104,2,0.055,3h17.09
		c0.98-8,7.5-13.75,15.37-13.75c8.55,0,15.5,6.95,15.5,15.5S1884.55,2327.25,1876,2327.25z M1914.875,842.125l-29.857-17.243
		l-0.005-34.479l29.854-17.235l29.857,17.243l0.004,34.479L1914.875,842.125z M2212.146,1717.49
		c-0.311,12.223-5.552,22.312-14.57,27.336c-11.381,6.34-26.917,2.633-38.137-6.952l-87.49,48.731l-16.297-29.26l87.572-48.779
		c-3.275-16.511,2.451-30.341,13.749-36.635c8.933-4.975,19.931-4.604,30.386,1.404l5.053,2.827l-5.061,3.024
		c-9.226,5.646-12.353,17.429-7.1,26.859c5.293,9.502,17.014,13.031,26.691,8.053l5.242-2.705L2212.146,1717.49z M2341,1985.531
		l-37,18.55v0.19l37,18.55v6.53l-44-22.621v-5.109l44-22.62V1985.531z M2341.077,1091.727c-2.78-0.995-5.193-2.662-7.065-4.82
		c0.48,2.816,0.239,5.739-0.756,8.52c-3.13,8.748-12.787,13.316-21.535,10.188c-8.748-3.13-13.318-12.788-10.188-21.536
		c0.995-2.78,2.663-5.193,4.821-7.065c-2.816,0.48-5.739,0.239-8.52-0.756c-8.748-3.13-13.316-12.787-10.188-21.535
		c3.13-8.748,12.788-13.318,21.536-10.188c2.78,0.995,5.194,2.663,7.065,4.821c-0.48-2.816-0.24-5.739,0.755-8.521
		c3.13-8.748,12.788-13.315,21.536-10.187c8.748,3.13,13.317,12.788,10.188,21.536c-0.995,2.78-2.662,5.193-4.82,7.065
		c2.816-0.48,5.739-0.24,8.521,0.755c8.748,3.13,13.315,12.788,10.187,21.536
		C2359.483,1090.287,2349.825,1094.856,2341.077,1091.727z M2353.615,2033h-6.341l26.31-69h6.531L2353.615,2033z M2374.53,382.7
		c0.479,12.29,1.04,24.67,2.569,36.89c0.54,4.36,0.9,8.68,1.891,12.98c0.74,3.189,2.93,6.77,3.31,9.92
		c0.021,0.17,0.03,0.34,0.03,0.51c0,2.76-2.47,5-5.51,5c-0.141,0-0.811,0-0.95-0.01c-19.64-0.12-35.87-9.04-47.87-22.66V513h-195
		V351h167.3c0.3-2,0.83-3.9,1.53-5.59l-37.88-6.715l34.479-41.292l11.04,29.899c18.029-11.52,36.856-9.867,40.53-9.286
		c14.752,2.333,23.61,26.452,23.61,50.552c5.381,0.89,5.68,1.046,11.05,2.006l-9.16,11.008l-0.973,1.078L2374.53,382.7z
		 M2430,2006.826l-44,22.525v-6.53l37-18.55v-0.19l-37-18.55v-6.53l44,22.43V2006.826z M2622.71,1481.45
		c-1.44,0-2.81-0.53-3.83-1.47l-39.46-36.23l-1.08-0.75H2551v-75h-20v-57h20v-48h45.12l-20.2-35.24
		c-1.38-2.39-0.561-5.564,1.83-6.955c2.391-1.38,5.45-0.622,6.83,1.768l22.5,39.199c0.189,0.33,0.33,0.229,0.439,1.229h30.961
		c0.109-1,0.25-0.93,0.439-1.26l22.5-39.105c1.38-2.39,4.44-3.272,6.83-1.893c2.39,1.391,3.21,4.659,1.83,7.049l-20.2,35.209H2693
		v48h19v57h-19v75h-25.93l-1.08,0.75l-39.46,36.355C2625.51,1481.045,2624.13,1481.45,2622.71,1481.45z M2718.23,2266.489
		c-2.771,0-5.431-0.711-7.767-2.025c1.314,2.336,2.025,4.995,2.025,7.767c0,8.719-7.09,15.809-15.81,15.809
		c-8.719,0-15.81-7.09-15.81-15.809c0-2.771,0.712-5.431,2.026-7.767c-2.336,1.314-4.996,2.025-7.768,2.025
		c-8.719,0-15.809-7.09-15.809-15.81c0-8.719,7.09-15.81,15.809-15.81c2.771,0,5.432,0.712,7.768,2.026
		c-1.314-2.336-2.026-4.996-2.026-7.768c0-8.719,7.091-15.809,15.81-15.809c8.72,0,15.81,7.09,15.81,15.809
		c0,2.771-0.711,5.432-2.025,7.768c2.336-1.314,4.995-2.026,7.767-2.026c8.719,0,15.809,7.091,15.809,15.81
		C2734.039,2259.399,2726.949,2266.489,2718.23,2266.489z M2788.703,1091.117l-48.331-20.858l-6.095-52.298l42.234-31.439
		l48.331,20.858l6.096,52.298L2788.703,1091.117z M2846.891,248.856c-6.849,2.545-14.596,1.037-21.329-4.341l-3.271-2.571l3.897-1.6
		c7.129-2.987,10.615-10.977,7.928-18.207c-2.707-7.286-10.604-11.056-17.98-8.589l-3.996,1.34l0.702-4.266
		c1.546-8.601,6.356-15.123,13.272-17.691c8.726-3.242,19.285,1.027,26.209,9.123l66.92-24.862l8.358,22.497l-66.984,24.887
		C2860.982,236.175,2855.555,245.638,2846.891,248.856z"/>
	<path class="st0" d="M2777.248,992.823l-37.146,27.65l5.361,45.998l42.505,18.345l37.146-27.652l-5.361-45.996L2777.248,992.823z
		 M2800.342,1062.65c-13.141,9.779-31.786,7.045-41.565-6.097c-9.779-13.14-7.044-31.787,6.097-41.565
		c13.141-9.779,31.787-7.044,41.565,6.097C2816.218,1034.226,2813.482,1052.872,2800.342,1062.65z"/>
	<path class="st0" d="M2682.806,2258.266c-0.026-0.047-0.052-0.091-0.077-0.138c-0.091-0.173-0.182-0.341-0.264-0.513
		c-0.095-0.199-0.189-0.393-0.275-0.591c-0.164-0.376-0.314-0.755-0.449-1.142c-0.021-0.057-0.038-0.113-0.055-0.174
		c-0.053-0.142-0.096-0.283-0.139-0.43c-0.018-0.043-0.03-0.087-0.039-0.135c-0.043-0.137-0.082-0.275-0.116-0.418
		c-0.025-0.082-0.048-0.164-0.064-0.245c-0.005-0.009-0.009-0.022-0.009-0.034c-0.09-0.375-0.168-0.759-0.232-1.143
		c-0.035-0.194-0.061-0.393-0.086-0.586c-0.009-0.057-0.014-0.112-0.021-0.164c-0.014-0.121-0.026-0.241-0.035-0.362
		c-0.018-0.138-0.025-0.275-0.034-0.413c-0.026-0.367-0.039-0.733-0.039-1.1s0.013-0.732,0.039-1.099
		c0.009-0.138,0.017-0.276,0.034-0.414c0.009-0.12,0.021-0.241,0.035-0.362c0.008-0.052,0.013-0.104,0.021-0.159
		c0.025-0.198,0.051-0.392,0.086-0.591c0.064-0.383,0.143-0.768,0.232-1.143c0-0.012,0.004-0.025,0.009-0.033
		c0.017-0.082,0.039-0.164,0.064-0.246c0.034-0.143,0.073-0.28,0.116-0.418c0.009-0.048,0.021-0.091,0.039-0.134
		c0.043-0.146,0.086-0.289,0.139-0.431c0.017-0.061,0.034-0.117,0.055-0.173c0.207-0.591,0.449-1.168,0.725-1.732
		c0.1-0.194,0.198-0.388,0.303-0.578c0.099-0.189,0.206-0.374,0.318-0.56c0-0.005,0.004-0.009,0.008-0.014
		c0.014-0.021,0.026-0.047,0.039-0.068c0.014-0.021,0.026-0.043,0.039-0.064c-2.138-2.1-4.996-3.281-8.043-3.281
		c-6.34,0-11.499,5.16-11.499,11.5s5.159,11.499,11.499,11.499c3.047,0,5.905-1.181,8.043-3.279
		c-0.047-0.078-0.095-0.155-0.143-0.237C2682.952,2258.533,2682.875,2258.399,2682.806,2258.266z"/>
	<polygon class="st0" points="2614,1412.85 2614,1461.78 2622.109,1469.38 2630,1461.98 2630,1411.57 2622.689,1404.71 	"/>
	<polygon class="st0" points="2592.05,1433.5 2587.99,1437.31 2593.57,1442.5 2594.391,1443.5 2603,1451.77 2603,1422.85 
		2592.87,1432.5 	"/>
	<path class="st0" d="M2688.68,2237.043c0.16-0.1,0.324-0.189,0.492-0.28c0.189-0.104,0.379-0.202,0.577-0.298
		c0.194-0.095,0.388-0.189,0.587-0.275c0.375-0.164,0.754-0.314,1.142-0.448c0.056-0.021,0.112-0.039,0.173-0.056
		c0.142-0.053,0.284-0.096,0.431-0.139c0.043-0.018,0.086-0.03,0.134-0.039c0.138-0.043,0.275-0.082,0.418-0.116
		c0.082-0.025,0.164-0.048,0.246-0.064c0.008-0.004,0.021-0.009,0.033-0.009c0.375-0.09,0.76-0.168,1.143-0.232
		c0.199-0.034,0.393-0.061,0.591-0.086c0.056-0.009,0.107-0.014,0.159-0.021c0.121-0.014,0.242-0.026,0.362-0.035
		c0.138-0.017,0.276-0.025,0.414-0.034c0.366-0.026,0.732-0.039,1.099-0.039c0.367,0,0.732,0.013,1.1,0.039
		c0.138,0.009,0.275,0.018,0.413,0.034c0.121,0.009,0.241,0.021,0.362,0.035c0.052,0.008,0.107,0.013,0.164,0.021
		c0.193,0.025,0.392,0.052,0.586,0.086c0.384,0.064,0.768,0.143,1.143,0.232c0.012,0,0.025,0.005,0.034,0.009
		c0.081,0.017,0.163,0.039,0.245,0.064c0.143,0.034,0.281,0.073,0.418,0.116c0.048,0.009,0.092,0.021,0.135,0.039
		c0.146,0.043,0.288,0.086,0.43,0.139c0.061,0.017,0.117,0.034,0.174,0.056c0.59,0.206,1.168,0.448,1.732,0.724
		c0.193,0.1,0.388,0.198,0.577,0.303c0.189,0.099,0.375,0.206,0.561,0.318c0.004,0,0.009,0.004,0.013,0.008
		c0.021,0.014,0.047,0.026,0.068,0.039c0.021,0.014,0.043,0.026,0.065,0.039c2.099-2.138,3.28-4.995,3.28-8.043
		c0-6.34-5.16-11.499-11.5-11.499s-11.5,5.159-11.5,11.499c0,3.048,1.182,5.905,3.281,8.043
		C2688.533,2237.129,2688.607,2237.082,2688.68,2237.043z"/>
	<path class="st0" d="M2706.312,2256.96c1.225-1.862,1.867-4.018,1.867-6.28c0-2.586-0.836-5.025-2.423-7.056
		c-0.521-0.668-1.104-1.267-1.737-1.798l-0.284-0.224c-2.03-1.586-4.47-2.423-7.056-2.423s-5.025,0.837-7.056,2.423
		c-0.755,0.582-1.427,1.259-2.017,2.018l-0.005,0.004c-0.198,0.25-0.384,0.509-0.556,0.776c-1.225,1.861-1.867,4.017-1.867,6.279
		c0,2.586,0.837,5.025,2.423,7.056c0.521,0.668,1.1,1.267,1.737,1.798l0.284,0.224c2.03,1.586,4.47,2.422,7.056,2.422
		s5.025-0.836,7.056-2.422c0.75-0.582,1.427-1.259,2.017-2.017l0.005-0.005C2705.955,2257.485,2706.141,2257.227,2706.312,2256.96z"
		/>
	<polygon class="st0" points="2653.09,1432.5 2641,1421.57 2641,1451.97 2651.5,1442.5 2657.825,1436.77 2654.232,1433.5 	"/>
	<path class="st0" d="M2916.297,183.621l-65.736,24.423l-1.028-1.3c-5.884-8.09-14.552-11.64-21.634-9.008
		c-4.211,1.564-7.41,5.197-9.139,10.104c8.586-0.88,16.9,4.099,20.037,12.541c3.109,8.369,0.104,17.52-6.887,22.488
		c4.457,2.498,9.168,3.071,13.324,1.527c7.03-2.611,11.152-11.229,10.388-21.102l-0.231-2.111l65.781-24.439L2916.297,183.621z"/>
	<path class="st0" d="M2174.143,1709.457c-6.079-10.914-3.865-24.207,4.747-32.564c-6.696-2.508-13.333-2.298-18.752,0.721
		c-9.169,5.106-13.072,17.844-9.915,31.336l0.736,2.811l-85.758,47.768l9.566,17.175l85.698-47.735l1.714,1.608
		c9.857,9.939,22.608,13.021,31.846,7.876c5.491-3.059,9.146-8.756,10.494-15.91
		C2192.832,1725.583,2180.275,1720.468,2174.143,1709.457z"/>
	<path class="st0" d="M1763.54,2239.07c-38.41,0-69.94,29.93-72.24,67.93h144.48C1833.48,2269,1801.96,2239.07,1763.54,2239.07z"/>
	<path class="st0" d="M1690,2385h36.55c0.12-1,0.271-1.2,0.47-1.54l29.881-52.175l0.609-1.133c1.04-1.78,2.931-2.931,4.971-2.931
		c1.02,0,2.01,0.264,2.869,0.754c0.86,0.49,1.591,1.223,2.101,2.122l0.92,1.637l29.35,51.188c0.3,0.44,0.55,1.078,0.721,2.078H1835
		v-69h-145V2385z"/>
	<path class="st0" d="M1876,2301c-5.79,0-10.5,4.71-10.5,10.5s4.71,10.5,10.5,10.5s10.5-4.71,10.5-10.5S1881.79,2301,1876,2301z"/>
	<path class="st0" d="M1914.87,791.791c-8.742,0-15.854,7.113-15.854,15.855s7.112,15.854,15.854,15.854
		c8.743,0,15.855-7.112,15.855-15.854S1923.613,791.791,1914.87,791.791z"/>
	<path class="st0" d="M1914.865,777.322l-26.254,15.158l0.004,30.324l26.26,15.166l26.255-15.158l-0.005-30.324L1914.865,777.322z
		 M1914.87,827.1c-10.726,0-19.452-8.727-19.452-19.453s8.727-19.453,19.452-19.453c10.727,0,19.453,8.727,19.453,19.453
		S1925.597,827.1,1914.87,827.1z"/>
	<path class="st0" d="M1650,2301c-5.79,0-10.5,4.71-10.5,10.5s4.71,10.5,10.5,10.5s10.5-4.71,10.5-10.5S1655.79,2301,1650,2301z"/>
	<path class="st0" d="M2321.999,1051.575c0.195-0.042,0.392-0.073,0.593-0.104c0.228-0.036,0.453-0.067,0.687-0.092
		c0.229-0.025,0.457-0.05,0.687-0.065c0.436-0.03,0.87-0.046,1.308-0.041c0.064,0,0.126,0.002,0.192,0.006
		c0.162,0,0.32,0.008,0.482,0.018c0.05-0.002,0.098,0,0.147,0.008c0.154,0.008,0.308,0.018,0.461,0.034
		c0.092,0.004,0.183,0.012,0.271,0.023c0.01-0.002,0.024-0.001,0.037,0.004c0.41,0.043,0.822,0.103,1.23,0.177
		c0.211,0.036,0.414,0.079,0.623,0.125c0.06,0.011,0.112,0.025,0.168,0.035c0.126,0.03,0.251,0.061,0.375,0.095
		c0.145,0.033,0.286,0.073,0.428,0.115c0.377,0.104,0.749,0.223,1.117,0.354c0.367,0.132,0.73,0.275,1.088,0.434
		c0.136,0.059,0.271,0.117,0.404,0.184c0.117,0.053,0.233,0.108,0.35,0.164c0.049,0.028,0.104,0.052,0.157,0.081
		c0.185,0.096,0.374,0.192,0.557,0.297c0.362,0.202,0.719,0.417,1.063,0.644c0.012,0.005,0.024,0.014,0.03,0.021
		c0.076,0.047,0.151,0.099,0.224,0.153c0.13,0.085,0.254,0.174,0.379,0.267c0.043,0.026,0.082,0.054,0.119,0.087
		c0.131,0.096,0.259,0.19,0.383,0.293c0.055,0.039,0.104,0.076,0.153,0.118c0.518,0.42,1.011,0.869,1.479,1.348
		c0.159,0.169,0.318,0.339,0.471,0.511c0.154,0.168,0.302,0.343,0.448,0.521c0.003,0.002,0.007,0.007,0.01,0.013
		c0.017,0.021,0.038,0.044,0.055,0.064s0.034,0.041,0.052,0.062c2.873-1.392,5.083-3.835,6.177-6.892
		c2.275-6.361-1.049-13.39-7.409-15.665c-6.361-2.276-13.39,1.049-15.665,7.41c-1.094,3.057-0.935,6.348,0.403,9.246
		C2321.82,1051.61,2321.911,1051.589,2321.999,1051.575z"/>
	<path class="st0" d="M2308.569,1071.238c-0.031-0.156-0.061-0.318-0.082-0.478c-0.009-0.058-0.02-0.109-0.028-0.166
		c-0.03-0.205-0.06-0.407-0.08-0.609c-0.024-0.232-0.049-0.461-0.064-0.69c-0.029-0.437-0.045-0.871-0.041-1.308
		c0-0.064,0.002-0.127,0.007-0.193c-0.001-0.161,0.007-0.319,0.017-0.481c-0.002-0.05,0-0.098,0.008-0.147
		c0.008-0.155,0.018-0.308,0.034-0.462c0.004-0.091,0.012-0.182,0.023-0.27c-0.002-0.01-0.001-0.025,0.004-0.037
		c0.043-0.41,0.103-0.822,0.177-1.23c0.034-0.207,0.08-0.415,0.123-0.618c0.012-0.061,0.028-0.118,0.037-0.174
		c0.03-0.125,0.061-0.25,0.095-0.374c0.033-0.145,0.074-0.287,0.115-0.428c0.104-0.378,0.224-0.75,0.354-1.117
		c0.132-0.368,0.276-0.73,0.434-1.088c0.059-0.137,0.117-0.271,0.184-0.404c0.053-0.117,0.108-0.233,0.164-0.351
		c0.028-0.049,0.051-0.099,0.08-0.151c0.097-0.19,0.192-0.375,0.298-0.562c0.202-0.362,0.417-0.719,0.644-1.063
		c0.005-0.013,0.014-0.024,0.021-0.03c0.047-0.076,0.099-0.151,0.153-0.224c0.085-0.13,0.175-0.255,0.267-0.379
		c0.026-0.043,0.054-0.082,0.087-0.119c0.096-0.132,0.19-0.259,0.293-0.384c0.039-0.054,0.076-0.103,0.118-0.152
		c0.42-0.518,0.869-1.011,1.348-1.479c0.169-0.159,0.339-0.318,0.511-0.471c0.168-0.155,0.343-0.302,0.521-0.448
		c0.002-0.003,0.007-0.007,0.013-0.01c0.021-0.018,0.044-0.038,0.064-0.055c0.021-0.018,0.041-0.034,0.062-0.052
		c-1.392-2.873-3.834-5.084-6.892-6.178c-6.361-2.275-13.39,1.05-15.665,7.41c-2.276,6.361,1.049,13.39,7.41,15.665
		c3.057,1.094,6.348,0.935,9.246-0.403C2308.607,1071.433,2308.588,1071.338,2308.569,1071.238z"/>
	<polygon class="st0" points="1756,2381 1756,2354.6 1741.93,2381 	"/>
	<path class="st0" d="M1774,2198c0-5.79-4.71-10.5-10.5-10.5s-10.5,4.71-10.5,10.5s4.71,10.5,10.5,10.5S1774,2203.79,1774,2198z"/>
	<path class="st0" d="M2336.667,1072.257c0.928-2.595,0.965-5.342,0.103-7.948c-0.284-0.857-0.652-1.666-1.098-2.427l-0.205-0.327
		c-1.468-2.319-3.615-4.035-6.209-4.963c-2.595-0.928-5.343-0.964-7.949-0.102c-0.966,0.313-1.883,0.751-2.748,1.3l-0.006,0.003
		c-0.288,0.18-0.566,0.372-0.836,0.579c-1.896,1.428-3.313,3.36-4.126,5.631c-0.928,2.594-0.965,5.341-0.103,7.948
		c0.284,0.856,0.648,1.665,1.098,2.427l0.205,0.326c1.467,2.32,3.615,4.034,6.21,4.963c2.594,0.928,5.341,0.965,7.948,0.103
		c0.961-0.315,1.883-0.751,2.747-1.301l0.006-0.002c0.289-0.18,0.567-0.372,0.837-0.579
		C2334.438,1076.46,2335.854,1074.527,2336.667,1072.257z"/>
	<polygon class="st0" points="1768,2381 1783.04,2381 1768,2355.11 	"/>
</g>
</svg>
