<?xml version="1.0" encoding="utf-8"?>
<!-- Generator: Adobe Illustrator 15.0.0, SVG Export Plug-In . SVG Version: 6.00 Build 0)  -->
<!DOCTYPE svg PUBLIC "-//W3C//DTD SVG 1.1//EN" "http://www.w3.org/Graphics/SVG/1.1/DTD/svg11.dtd">
<svg version="1.1" id="Layer_3" xmlns="http://www.w3.org/2000/svg" xmlns:xlink="http://www.w3.org/1999/xlink" x="0px" y="0px"
	 width="320px" height="320px" viewBox="0 0 320 320" style="enable-background:new 0 0 320 320;" xml:space="preserve">
<style type="text/css">
<![CDATA[
	.st0{fill:#FFFFFF;}
]]>
</style>
<path class="st0" d="M320,320H0V0h320V320z M126.56,56.46c-35.234,35.235-56.676,70.922-47.889,79.709s44.474-12.654,79.709-47.889
	c35.234-35.235,56.675-70.921,47.889-79.708C197.481-0.215,161.794,21.225,126.56,56.46z M55.849,194.346
	c35.235,35.235,70.922,56.676,79.709,47.89s-12.654-44.474-47.889-79.709c-35.236-35.236-70.922-56.675-79.709-47.889
	S20.613,159.11,55.849,194.346z M232.276,158.642c35.062,35.061,70.608,56.361,79.395,47.575
	c8.787-8.787-12.514-44.334-47.574-79.395c-35.062-35.062-70.607-56.361-79.395-47.574
	C175.916,88.034,197.215,123.58,232.276,158.642z M241.306,185.666c-8.837-8.837-44.422,12.42-79.482,47.48
	c-35.059,35.059-56.316,70.645-47.479,79.48c8.836,8.838,44.422-12.42,79.48-47.479
	C228.886,230.088,250.143,194.503,241.306,185.666z"/>
</svg>