<?xml version="1.0" encoding="utf-8"?>
<!-- Generator: Adobe Illustrator 15.0.0, SVG Export Plug-In . SVG Version: 6.00 Build 0)  -->
<!DOCTYPE svg PUBLIC "-//W3C//DTD SVG 1.1//EN" "http://www.w3.org/Graphics/SVG/1.1/DTD/svg11.dtd">
<svg version="1.1" id="Layer_1" xmlns="http://www.w3.org/2000/svg" xmlns:xlink="http://www.w3.org/1999/xlink" x="0px" y="0px"
	 width="1694.445px" height="569.444px" viewBox="0 0 1694.445 569.444" style="enable-background:new 0 0 1694.445 569.444;"
	 xml:space="preserve">
<style type="text/css">
<![CDATA[
	.st0{fill:#FFFFFF;}
]]>
</style>
<g>
	<rect x="134.552" y="188.665" class="st0" width="20" height="13"/>
	<rect x="134.552" y="211.665" class="st0" width="20" height="14"/>
	<path class="st0" d="M82.289,442.021c-14.872,4.73-23.122,20.679-18.392,35.551c4.73,14.871,20.678,23.121,35.55,18.391
		c14.872-4.73,23.122-20.678,18.392-35.549C113.108,445.541,97.16,437.29,82.289,442.021z"/>
	<rect x="104.552" y="188.665" class="st0" width="20" height="13"/>
	<rect x="164.552" y="188.665" class="st0" width="19" height="13"/>
	<path class="st0" d="M184.232,132.595c10.94,0,19.851-8.9,19.851-19.84c0-10.95-8.91-19.85-19.851-19.85
		c-10.939,0-19.84,8.9-19.84,19.85C164.392,123.695,173.292,132.595,184.232,132.595z"/>
	<rect x="104.552" y="211.665" class="st0" width="20" height="14"/>
	<path class="st0" d="M74.451,417.409l-36.459,39.992l16.415,51.582l52.877,11.59l36.459-39.99L127.328,429L74.451,417.409z
		 M101.393,502.082c-18.247,5.805-37.813-4.318-43.617-22.565c-5.804-18.246,4.319-37.812,22.565-43.615
		c18.247-5.805,37.812,4.318,43.617,22.564C129.762,476.712,119.64,496.278,101.393,502.082z"/>
	<path class="st0" d="M193.378,345.28c-0.469-9.992-5.76-17.721-13.123-19.416c-4.378-1.007-9.047,0.271-13.188,3.42
		c7.656,3.982,11.867,12.712,9.848,21.489c-2.002,8.7-9.542,14.693-18.113,15.003c2.352,4.536,5.973,7.604,10.292,8.599
		c7.31,1.681,15.49-3.253,20.276-11.921l0.966-1.891l68.389,15.733l3.14-13.644l-68.342-15.723L193.378,345.28z"/>
	<rect x="25.552" y="107.665" class="st0" width="7" height="48"/>
	<path class="st0" d="M689.831,434.964c-11.13-8.267-26.911-5.937-35.177,5.193c-8.266,11.129-5.937,26.91,5.193,35.176
		c11.13,8.267,26.91,5.937,35.177-5.193C703.29,459.01,700.961,443.229,689.831,434.964z"/>
	<polygon class="st0" points="461.642,490.165 449.552,479.235 449.552,509.635 460.052,500.165 466.377,494.435 462.785,491.165 	
		"/>
	<path class="st0" d="M108.232,132.595c10.95,0,19.85-8.9,19.85-19.84c0-10.95-8.9-19.85-19.85-19.85
		c-10.94,0-19.84,8.9-19.84,19.85C88.392,123.695,97.292,132.595,108.232,132.595z"/>
	<polygon class="st0" points="422.552,470.515 422.552,519.445 430.662,527.045 438.552,519.646 438.552,469.235 431.242,462.375 	
		"/>
	<rect x="501.552" y="378.665" class="st0" width="9" height="37"/>
	<path class="st0" d="M369.552,490.665h16.94l41.52-38.65c1.02-0.93,2.39-1.585,3.83-1.585c1.44,0,2.81,0.718,3.83,1.647
		l41.52,38.588h14.36v-160h-122V490.665z M389.552,343.665h80v10h-80V343.665z M389.552,364.665h80v62h-80V364.665z"/>
	<polygon class="st0" points="400.602,491.165 396.542,494.975 402.122,500.165 402.942,501.165 411.552,509.435 411.552,480.515 
		401.422,490.165 	"/>
	<path class="st0" d="M42.552,201.665h52v-23h99v23h56v-133h-207V201.665z M184.232,82.905c16.46,0,29.851,13.39,29.851,29.85
		c0,16.45-13.391,29.84-29.851,29.84c-16.449,0-29.84-13.39-29.84-29.84C154.392,96.295,167.783,82.905,184.232,82.905z
		 M108.232,82.905c16.46,0,29.85,13.39,29.85,29.85c0,16.45-13.39,29.84-29.85,29.84c-16.45,0-29.84-13.39-29.84-29.84
		C78.392,96.295,91.782,82.905,108.232,82.905z"/>
	<rect x="259.552" y="107.665" class="st0" width="7" height="48"/>
	<rect x="349.552" y="378.665" class="st0" width="10" height="37"/>
	<rect x="164.552" y="211.665" class="st0" width="19" height="14"/>
	<path class="st0" d="M409.131,121.783c5.189-2.887,8.937-7.604,10.588-13.204c-0.154-0.088-0.309-0.175-0.467-0.27
		c-0.255-0.146-0.513-0.3-0.757-0.462c-0.089-0.056-0.174-0.105-0.263-0.161c-0.318-0.208-0.63-0.409-0.934-0.625
		c-0.35-0.248-0.694-0.488-1.029-0.744c-0.634-0.483-1.25-0.986-1.845-1.52c-0.089-0.075-0.172-0.155-0.259-0.241
		c-0.223-0.193-0.431-0.395-0.643-0.603c-0.07-0.056-0.134-0.118-0.193-0.19c-0.204-0.194-0.401-0.393-0.595-0.602
		c-0.121-0.115-0.236-0.235-0.342-0.357c-0.016-0.011-0.036-0.029-0.048-0.051c-0.509-0.553-1.004-1.133-1.479-1.725
		c-0.242-0.298-0.474-0.611-0.701-0.917c-0.068-0.087-0.129-0.179-0.192-0.259c-0.136-0.193-0.273-0.386-0.402-0.583
		c-0.159-0.218-0.305-0.445-0.451-0.672c-0.391-0.599-0.76-1.21-1.107-1.834c-0.348-0.624-0.672-1.261-0.975-1.909
		c-0.116-0.244-0.232-0.486-0.333-0.737c-0.1-0.213-0.192-0.431-0.285-0.648c-0.035-0.097-0.076-0.189-0.115-0.293
		c-0.144-0.362-0.283-0.716-0.412-1.087c-0.253-0.714-0.485-1.441-0.686-2.165c-0.012-0.022-0.017-0.048-0.018-0.066
		c-0.048-0.156-0.089-0.317-0.123-0.48c-0.076-0.275-0.14-0.547-0.197-0.822c-0.031-0.089-0.049-0.175-0.061-0.265
		c-0.065-0.291-0.126-0.574-0.173-0.865c-0.028-0.119-0.052-0.23-0.068-0.346c-0.207-1.201-0.343-2.414-0.408-3.637
		c-0.015-0.425-0.03-0.849-0.033-1.27c-0.011-0.417-0.003-0.834,0.012-1.256c-0.004-0.007-0.001-0.019,0.002-0.03
		c0.001-0.049-0.001-0.105,0-0.154c0.001-0.05,0.003-0.098,0.005-0.147c-5.629-1.549-11.614-0.853-16.803,2.034
		c-10.796,6.006-14.694,19.679-8.687,30.475C384.663,123.892,398.335,127.789,409.131,121.783z"/>
	<polygon class="st0" points="712.552,200.665 722.222,209.025 730.927,201.665 731.062,181.665 712.552,181.665 	"/>
	<path class="st0" d="M944.163,173.354c0.205-0.127,0.414-0.243,0.63-0.358c0.242-0.132,0.485-0.259,0.739-0.381
		c0.248-0.122,0.497-0.243,0.75-0.353c0.48-0.209,0.966-0.403,1.462-0.574c0.072-0.028,0.144-0.05,0.222-0.072
		c0.182-0.066,0.364-0.122,0.552-0.177c0.055-0.022,0.109-0.039,0.171-0.05c0.177-0.055,0.353-0.104,0.534-0.149
		c0.105-0.033,0.211-0.061,0.315-0.083c0.011-0.005,0.028-0.011,0.044-0.011c0.48-0.116,0.971-0.215,1.463-0.298
		c0.253-0.044,0.502-0.077,0.755-0.11c0.072-0.011,0.138-0.017,0.205-0.028c0.153-0.016,0.309-0.033,0.463-0.044
		c0.177-0.022,0.354-0.033,0.53-0.044c0.469-0.033,0.938-0.05,1.406-0.05s0.938,0.017,1.407,0.05
		c0.177,0.011,0.354,0.022,0.53,0.044c0.154,0.011,0.309,0.028,0.463,0.044c0.066,0.011,0.138,0.017,0.21,0.028
		c0.248,0.033,0.502,0.066,0.75,0.11c0.491,0.083,0.982,0.182,1.463,0.298c0.016,0,0.032,0.006,0.044,0.011
		c0.104,0.022,0.21,0.05,0.314,0.083c0.182,0.044,0.358,0.094,0.535,0.149c0.061,0.011,0.116,0.028,0.171,0.05
		c0.188,0.055,0.37,0.11,0.552,0.177c0.077,0.022,0.149,0.044,0.221,0.072c0.756,0.265,1.496,0.574,2.219,0.927
		c0.248,0.127,0.496,0.254,0.738,0.386c0.243,0.127,0.48,0.265,0.719,0.408c0.005,0,0.01,0.006,0.016,0.011
		c0.027,0.017,0.061,0.033,0.088,0.05c0.028,0.017,0.056,0.033,0.084,0.05c2.687-2.737,4.198-6.396,4.198-10.296
		c0-8.117-6.604-14.722-14.722-14.722c-8.116,0-14.721,6.605-14.721,14.722c0,3.901,1.512,7.56,4.198,10.296
		C943.975,173.465,944.069,173.404,944.163,173.354z"/>
	<path class="st0" d="M926.816,205.534c3.9,0,7.559-1.512,10.296-4.199c-0.062-0.1-0.122-0.198-0.183-0.303
		c-0.099-0.166-0.198-0.337-0.286-0.508c-0.034-0.061-0.067-0.116-0.1-0.177c-0.116-0.221-0.232-0.437-0.337-0.657
		c-0.121-0.254-0.242-0.502-0.354-0.756c-0.209-0.48-0.402-0.965-0.573-1.461c-0.027-0.072-0.05-0.145-0.072-0.222
		c-0.065-0.183-0.121-0.364-0.176-0.552c-0.022-0.055-0.039-0.11-0.05-0.171c-0.056-0.177-0.105-0.354-0.149-0.536
		c-0.032-0.104-0.061-0.209-0.083-0.313c-0.005-0.011-0.011-0.028-0.011-0.044c-0.115-0.48-0.215-0.971-0.298-1.463
		c-0.044-0.248-0.077-0.502-0.11-0.75c-0.011-0.072-0.017-0.144-0.027-0.21c-0.017-0.154-0.033-0.309-0.044-0.464
		c-0.022-0.176-0.033-0.353-0.045-0.529c-0.033-0.469-0.049-0.938-0.049-1.406c0-0.47,0.016-0.938,0.049-1.408
		c0.012-0.176,0.022-0.353,0.045-0.529c0.011-0.154,0.027-0.309,0.044-0.463c0.011-0.066,0.017-0.133,0.027-0.205
		c0.033-0.254,0.066-0.502,0.11-0.756c0.083-0.49,0.183-0.982,0.298-1.462c0-0.017,0.006-0.032,0.011-0.044
		c0.022-0.105,0.051-0.21,0.083-0.314c0.044-0.182,0.094-0.359,0.149-0.535c0.011-0.061,0.027-0.116,0.05-0.172
		c0.055-0.188,0.11-0.369,0.176-0.551c0.022-0.078,0.045-0.149,0.072-0.221c0.265-0.756,0.573-1.496,0.927-2.219
		c0.127-0.248,0.254-0.496,0.387-0.739c0.127-0.243,0.265-0.479,0.408-0.717c0-0.005,0.006-0.011,0.011-0.016
		c0.017-0.028,0.033-0.061,0.05-0.088c0.016-0.028,0.033-0.056,0.05-0.083c-2.737-2.687-6.396-4.199-10.296-4.199
		c-8.117,0-14.722,6.605-14.722,14.722C912.094,198.93,918.699,205.534,926.816,205.534z"/>
	<path class="st0" d="M843.802,150.785c0-7.8-5.25-14.681-14.25-17.5v35.24C838.552,165.665,843.802,158.695,843.802,150.785z"/>
	<path class="st0" d="M972.138,181.046c0.071,0.133,0.144,0.266,0.209,0.398c0.028,0.038,0.045,0.082,0.066,0.121
		c0.094,0.176,0.183,0.353,0.266,0.535c0.303,0.623,0.568,1.264,0.794,1.914c0.078,0.215,0.155,0.431,0.221,0.651
		c0.066,0.21,0.133,0.419,0.193,0.634c0.006,0.023,0.017,0.045,0.017,0.072c0.056,0.193,0.105,0.387,0.154,0.58
		c0.062,0.231,0.111,0.469,0.16,0.706c0.055,0.265,0.104,0.53,0.148,0.794c0.045,0.254,0.078,0.502,0.111,0.756
		c0.011,0.072,0.017,0.139,0.027,0.205c0.017,0.154,0.033,0.309,0.044,0.463c0.022,0.177,0.033,0.354,0.044,0.529
		c0.033,0.47,0.05,0.938,0.05,1.408c0,0.469-0.017,0.938-0.05,1.406c-0.011,0.177-0.021,0.354-0.044,0.529
		c-0.011,0.155-0.027,0.31-0.044,0.464c-0.011,0.066-0.017,0.138-0.027,0.21c-0.033,0.248-0.066,0.502-0.111,0.75
		c-0.044,0.266-0.094,0.529-0.148,0.795c-0.049,0.237-0.099,0.475-0.16,0.706c-0.049,0.193-0.099,0.386-0.154,0.579
		c0,0.028-0.011,0.051-0.017,0.072c-0.061,0.215-0.127,0.425-0.193,0.635c-0.065,0.221-0.143,0.436-0.221,0.65
		c-0.231,0.662-0.501,1.309-0.811,1.942c-0.061,0.133-0.122,0.259-0.188,0.387c-0.083,0.165-0.171,0.331-0.26,0.491
		c-0.127,0.242-0.265,0.479-0.408,0.717c0,0.006-0.005,0.012-0.011,0.017c-0.012,0.027-0.033,0.056-0.05,0.089
		c-0.017,0.027-0.033,0.055-0.05,0.082c2.736,2.688,6.395,4.199,10.296,4.199c8.117,0,14.722-6.604,14.722-14.721
		c0-8.117-6.604-14.722-14.722-14.722c-3.901,0-7.56,1.512-10.296,4.199c0.061,0.099,0.121,0.199,0.182,0.303
		C971.967,180.743,972.056,180.892,972.138,181.046z"/>
	<path class="st0" d="M1079.601,111.388c15.72-6.7,23.057-24.939,16.356-40.657c-6.7-15.718-24.939-23.055-40.657-16.355
		s-23.055,24.939-16.355,40.656C1045.645,110.75,1063.884,118.087,1079.601,111.388z"/>
	<path class="st0" d="M1508.297,174.243l95.177-67.885l2.219,1.645c12.987,10.461,28.479,12.406,38.734,5.091
		c6.097-4.348,9.666-11.586,10.313-20.234c-13.435,5.15-28.98,0.752-37.699-11.473c-8.643-12.117-7.783-28.15,1.307-39.186
		c-8.26-2.082-16.091-0.956-22.106,3.335c-10.18,7.261-13.068,22.921-7.544,38.478l1.291,3.294l-95.245,67.935L1508.297,174.243z"/>
	<path class="st0" d="M942.072,182.773c-1.566,2.384-2.389,5.143-2.389,8.04c0,3.311,1.07,6.434,3.101,9.032
		c0.668,0.854,1.407,1.622,2.224,2.301l0.364,0.286c2.599,2.031,5.722,3.102,9.032,3.102s6.434-1.07,9.033-3.102
		c0.96-0.744,1.826-1.611,2.582-2.582l0.006-0.005c0.253-0.32,0.491-0.651,0.711-0.993c1.568-2.384,2.39-5.143,2.39-8.039
		c0-3.311-1.07-6.435-3.101-9.033c-0.668-0.855-1.413-1.622-2.224-2.301l-0.364-0.287c-2.6-2.031-5.723-3.101-9.033-3.101
		s-6.434,1.07-9.032,3.101c-0.966,0.745-1.826,1.611-2.582,2.582l-0.006,0.006C942.531,182.101,942.292,182.432,942.072,182.773z"/>
	<path class="st0" d="M1010.661,114.87l18.017-2.714l1.307,1.464c1.963,2.393,4.42,4.724,7.225,6.96l1.515,1.184l-2.186,17.864
		l13.642,5.472l10.748-14.402l1.92,0.186c3.907,0.379,7.221,0.4,10.13,0.063l1.982-0.064l11.152,14.471l13.485-5.748l-2.723-18.062
		l1.453-1.308c2.402-1.986,4.739-4.471,6.979-7.31l1.185-1.529l17.797,2.176l5.472-13.642l-14.456-10.788l0.173-1.906
		c0.258-2.843,0.167-5.969-0.284-9.834l-0.38-1.841l14.104-11.083l-5.758-13.509l-17.857,2.515l-1.144-1.494
		c-2.267-2.707-4.48-4.951-6.849-6.825l-1.492-1.206l2.306-18.105l-13.583-5.481l-10.92,14.658l-1.905-0.173
		c-2.779-0.25-5.731-0.169-9.575,0.267l-1.835,0.373l-11.102-14.148l-13.506,5.757l2.513,17.809l-1.505,1.144
		c-2.709,2.25-4.948,4.437-6.811,6.765l-1.207,1.478l-18.173-2.316l-5.481,13.584l14.601,10.878l-0.181,1.913
		c-0.371,3.931-0.397,7.069-0.082,9.877l0.057,1.977l-14.514,11.17L1010.661,114.87z M1052.62,48.086
		c19.187-8.178,41.449,0.778,49.628,19.964c8.178,19.187-0.778,41.45-19.965,49.628s-41.449-0.778-49.627-19.964
		C1024.478,78.527,1033.433,56.264,1052.62,48.086z"/>
	<path class="st0" d="M964.645,208.271c-0.182,0.111-0.37,0.221-0.558,0.314c-0.927,0.514-1.893,0.949-2.885,1.297
		c-0.216,0.078-0.431,0.154-0.652,0.221c-0.209,0.066-0.419,0.133-0.634,0.193c-0.022,0.006-0.044,0.017-0.071,0.017
		c-0.193,0.056-0.387,0.104-0.58,0.155c-0.231,0.061-0.469,0.109-0.706,0.16c-0.265,0.055-0.529,0.104-0.795,0.148
		c-0.248,0.044-0.502,0.077-0.75,0.109c-0.072,0.012-0.144,0.018-0.21,0.028c-0.154,0.017-0.309,0.033-0.463,0.044
		c-0.177,0.021-0.354,0.033-0.53,0.045c-0.469,0.033-0.938,0.049-1.407,0.049s-0.938-0.016-1.406-0.049
		c-0.177-0.012-0.354-0.023-0.53-0.045c-0.154-0.011-0.31-0.027-0.463-0.044c-0.067-0.011-0.133-0.017-0.205-0.028
		c-0.253-0.032-0.502-0.065-0.755-0.109c-0.266-0.045-0.53-0.094-0.795-0.148c-0.237-0.051-0.475-0.1-0.707-0.16
		c-0.192-0.051-0.386-0.1-0.578-0.155c-0.028,0-0.051-0.011-0.072-0.017c-0.215-0.061-0.425-0.127-0.635-0.193
		c-0.221-0.066-0.436-0.143-0.651-0.221c-0.661-0.231-1.308-0.502-1.942-0.811c-0.132-0.061-0.259-0.121-0.386-0.188
		c-0.165-0.083-0.331-0.171-0.491-0.26c-0.242-0.127-0.479-0.265-0.718-0.408c-0.005,0-0.011-0.006-0.016-0.012
		c-0.028-0.01-0.056-0.032-0.089-0.049c-0.027-0.017-0.055-0.033-0.083-0.05c-2.687,2.737-4.198,6.396-4.198,10.296
		c0,8.117,6.604,14.722,14.721,14.722c8.117,0,14.722-6.604,14.722-14.722c0-3.9-1.512-7.559-4.198-10.296
		C964.833,208.161,964.74,208.222,964.645,208.271z"/>
	<path class="st0" d="M461.727,97.001c-0.084,0.143-0.164,0.292-0.253,0.428c-0.159,0.281-0.328,0.568-0.507,0.831
		c-0.854,1.369-1.815,2.663-2.879,3.86c-0.229,0.263-0.458,0.525-0.703,0.776c-0.229,0.243-0.46,0.486-0.701,0.726
		c-0.024,0.024-0.046,0.055-0.083,0.075c-0.216,0.217-0.436,0.425-0.657,0.635c-0.263,0.252-0.542,0.494-0.82,0.736
		c-0.312,0.269-0.627,0.53-0.947,0.786c-0.297,0.243-0.61,0.475-0.916,0.702c-0.087,0.068-0.179,0.128-0.259,0.192
		c-0.192,0.136-0.385,0.273-0.583,0.402c-0.218,0.16-0.444,0.305-0.672,0.45c-0.599,0.391-1.211,0.76-1.834,1.107
		c-0.625,0.347-1.26,0.673-1.909,0.976c-0.243,0.116-0.485,0.232-0.737,0.333c-0.213,0.1-0.432,0.192-0.649,0.284
		c-0.097,0.035-0.188,0.077-0.292,0.115c-0.362,0.144-0.717,0.283-1.087,0.412c-0.385,0.138-0.773,0.267-1.167,0.39
		c-0.353,0.11-0.705,0.22-1.058,0.31c-0.293,0.077-0.587,0.154-0.885,0.223c-0.037,0.021-0.075,0.022-0.108,0.031
		c-0.33,0.079-0.658,0.145-0.986,0.212c-0.343,0.076-0.686,0.132-1.029,0.188c-1.053,0.182-2.11,0.301-3.184,0.359
		c-0.221,0.018-0.435,0.031-0.652,0.036c-0.281,0.013-0.567,0.018-0.845,0.019c-0.417,0.011-0.834,0.002-1.257-0.012
		c-0.007,0.004-0.018,0-0.03-0.003c-0.045,0.007-0.098-0.002-0.154-0.001c-0.049,0-0.098-0.002-0.146-0.004
		c-1.55,5.628-0.853,11.613,2.033,16.802c6.007,10.796,19.679,14.693,30.475,8.687c10.796-6.007,14.693-19.679,8.687-30.475
		C472.043,102.4,467.326,98.652,461.727,97.001z"/>
	<path class="st0" d="M412.582,80.219c-0.32,4.33,0.627,8.607,2.771,12.461c2.45,4.403,6.185,7.765,10.809,9.72
		c1.521,0.643,3.072,1.116,4.661,1.415l0.696,0.111c4.959,0.778,9.905-0.109,14.309-2.559c4.404-2.45,7.766-6.185,9.72-10.809
		c0.726-1.701,1.237-3.495,1.523-5.345l0.003-0.012c0.1-0.613,0.171-1.229,0.212-1.848c0.321-4.331-0.627-8.608-2.771-12.461
		c-2.45-4.404-6.184-7.766-10.809-9.72c-1.521-0.643-3.079-1.112-4.659-1.415l-0.697-0.112c-4.959-0.778-9.906,0.109-14.31,2.559
		c-4.403,2.45-7.765,6.185-9.719,10.809c-0.733,1.706-1.237,3.495-1.523,5.346l-0.004,0.011
		C412.692,78.985,412.622,79.601,412.582,80.219z"/>
	<path class="st0" d="M451.294,55.672c0.194,0.124,0.387,0.246,0.573,0.374c0.066,0.031,0.121,0.078,0.179,0.113
		c0.255,0.166,0.503,0.335,0.748,0.516c0.865,0.604,1.691,1.26,2.474,1.959c0.262,0.229,0.524,0.458,0.775,0.703
		c0.244,0.23,0.487,0.459,0.727,0.701c0.024,0.025,0.055,0.047,0.076,0.083c0.216,0.216,0.426,0.436,0.634,0.656
		c0.252,0.264,0.494,0.542,0.735,0.822c0.269,0.312,0.531,0.627,0.786,0.946c0.247,0.305,0.475,0.61,0.707,0.923
		c0.068,0.087,0.125,0.171,0.188,0.251c0.137,0.194,0.273,0.386,0.402,0.584c0.16,0.219,0.306,0.445,0.451,0.672
		c0.391,0.599,0.759,1.21,1.106,1.834c0.348,0.625,0.673,1.26,0.975,1.908c0.117,0.243,0.232,0.487,0.334,0.737
		c0.1,0.214,0.192,0.432,0.284,0.649c0.035,0.096,0.081,0.195,0.119,0.3c0.139,0.354,0.283,0.716,0.408,1.079
		c0.137,0.386,0.268,0.774,0.391,1.167c0.109,0.352,0.219,0.704,0.309,1.058c0.077,0.294,0.154,0.587,0.223,0.885
		c0.021,0.037,0.023,0.074,0.031,0.108c0.079,0.331,0.146,0.658,0.212,0.986c0.075,0.343,0.132,0.686,0.188,1.03
		c0.181,1.052,0.3,2.111,0.358,3.183c0.017,0.221,0.03,0.435,0.036,0.652c0.012,0.282,0.018,0.567,0.019,0.845
		c0.011,0.417,0.003,0.834-0.012,1.257c0.004,0.006,0.001,0.018-0.003,0.029c0.006,0.044-0.002,0.099,0,0.154
		c-0.002,0.048-0.003,0.098-0.005,0.146c5.629,1.549,11.613,0.853,16.802-2.034c10.796-6.007,14.694-19.679,8.688-30.475
		s-19.679-14.694-30.475-8.687c-5.188,2.887-8.936,7.605-10.588,13.204c0.155,0.087,0.309,0.175,0.467,0.269
		C450.843,55.396,451.071,55.528,451.294,55.672z"/>
	<path class="st0" d="M617.552,167.295v-32.72c-6,3.35-11.25,9.55-11.25,16.47C606.302,157.865,611.552,163.985,617.552,167.295z"/>
	<path class="st0" d="M408.142,66.572c0.083-0.143,0.164-0.293,0.251-0.429c0.178-0.32,0.371-0.629,0.571-0.942
		c0.225-0.355,0.454-0.704,0.702-1.053c0.241-0.345,0.481-0.69,0.737-1.025c0.483-0.634,0.986-1.25,1.521-1.845
		c0.075-0.089,0.154-0.172,0.24-0.259c0.193-0.223,0.395-0.431,0.604-0.643c0.057-0.07,0.118-0.133,0.19-0.193
		c0.194-0.204,0.392-0.4,0.602-0.594c0.115-0.121,0.234-0.236,0.357-0.343c0.011-0.015,0.028-0.035,0.05-0.047
		c0.553-0.51,1.133-1.005,1.725-1.479c0.305-0.247,0.61-0.474,0.923-0.706c0.087-0.068,0.171-0.125,0.251-0.188
		c0.193-0.136,0.387-0.273,0.584-0.401c0.218-0.16,0.445-0.306,0.671-0.451c0.599-0.391,1.21-0.76,1.834-1.108
		c0.624-0.347,1.26-0.671,1.909-0.975c0.243-0.116,0.486-0.232,0.737-0.333c0.214-0.1,0.432-0.192,0.649-0.284
		c0.096-0.034,0.195-0.08,0.299-0.119c0.354-0.139,0.716-0.283,1.08-0.409c0.715-0.253,1.441-0.484,2.166-0.686
		c0.022-0.012,0.048-0.017,0.067-0.018c0.155-0.048,0.316-0.088,0.479-0.122c0.274-0.077,0.546-0.141,0.823-0.199
		c0.088-0.03,0.174-0.049,0.264-0.06c0.29-0.065,0.573-0.127,0.864-0.174c0.119-0.027,0.231-0.051,0.347-0.068
		c1.202-0.207,2.414-0.343,3.636-0.408c0.424-0.015,0.849-0.03,1.269-0.033c0.417-0.011,0.834-0.003,1.257,0.012
		c0.007-0.004,0.018,0,0.03,0.002c0.048,0.001,0.105-0.001,0.154,0c0.049,0.002,0.098,0.003,0.148,0.005
		c1.548-5.628,0.852-11.613-2.035-16.802c-6.006-10.796-19.679-14.694-30.475-8.688c-10.796,6.007-14.693,19.68-8.688,30.476
		C397.824,61.173,402.542,64.92,408.142,66.572z"/>
	<polygon class="st0" points="702.552,181.665 690.992,181.665 702.552,191.825 	"/>
	<path class="st0" d="M654.416,114.776c-0.023-0.341,0.065-0.677,0.052-1.021c-0.01-0.01,0.052-0.02,0.062-0.029
		c-0.03-0.181-0.009-0.371-0.009-0.561c0-0.1,0.016-0.2,0.036-0.29c-0.01-0.01-0.002-0.021,0.008-0.03
		c-0.01-0.01,0.004,0.23,0.004,0.23c0.17-2.6,2.344-4.41,4.984-4.41h48c2.64,0,4.81,1.81,4.98,4.41c0,0,0.01-0.115,0-0.105
		c0.01,0.01,0.01-0.042,0-0.032c0.01,0.29,0,0.538-0.02,0.819l22.181-1.409c0.495-2.236,2.478-3.683,4.859-3.683h48
		c2.64,0,4.81,1.81,4.98,4.41c0,0,0.01-0.115,0-0.105c0.01,0.01,0.01-0.042,0-0.032c0.004,0.113-0.006,0.439-0.008,0.55
		l27.027,5.178l0,0v-36h-192v35.438L654.416,114.776z"/>
	<path class="st0" d="M788.792,128.665c-4.96,9-14.36,16.49-25.11,16.49c-10.85,0-20.33-7.49-25.34-16.49h-29.55
		c-4.96,9-14.36,16.49-25.11,16.49c-10.85,0-20.33-7.49-25.34-16.49h-30.79v82h81.14l-44.11-39h115.84l-44.11,39h83.24v-82l0,0
		H788.792z"/>
	<polygon class="st0" points="741.062,181.665 741.092,192.845 754.012,181.665 	"/>
	<path class="st0" d="M792.237,116.829c-0.058,0.446-0.108,0.896-0.185,1.336C792.129,117.723,792.187,117.276,792.237,116.829z"/>
	<rect x="399.552" y="374.665" class="st0" width="60" height="42"/>
	<path class="st0" d="M1124.552,420.665c-5.79,0-10.5,4.71-10.5,10.5s4.71,10.5,10.5,10.5s10.5-4.71,10.5-10.5
		S1130.342,420.665,1124.552,420.665z"/>
	<path class="st0" d="M1630.552,353.774v-29.109h-36.86C1596.442,339.665,1611.552,351.944,1630.552,353.774z"/>
	<path class="st0" d="M1376.38,462.479c-0.47-1.155-1.053-2.237-1.736-3.242l-0.312-0.432c-2.237-3.062-5.355-5.226-9.018-6.264
		c-3.661-1.038-7.451-0.835-10.963,0.596c-1.302,0.521-2.525,1.209-3.665,2.046l-0.009,0.004c-0.381,0.274-0.747,0.566-1.099,0.875
		c-2.481,2.145-4.256,4.938-5.165,8.143c-1.038,3.661-0.834,7.451,0.596,10.963c0.471,1.154,1.048,2.234,1.738,3.242l0.312,0.431
		c2.236,3.062,5.355,5.226,9.017,6.264c3.661,1.039,7.451,0.835,10.963-0.596c1.295-0.522,2.524-1.208,3.666-2.046l0.007-0.004
		c0.381-0.274,0.748-0.565,1.1-0.875c2.481-2.145,4.256-4.938,5.165-8.143C1378.015,469.78,1377.812,465.989,1376.38,462.479z"/>
	<path class="st0" d="M1417.873,123.245c-0.271-4.97-0.261-9.95,2.569-14.23l-9.56,11.31l-8.43,10l-13.261-36
		c-2.54,1.5-4.64,2.55-8.64,3.04v19.24c3,19.63,18.5,35.57,39.26,39.26c0.681,0.12,1.505,0.229,2.205,0.31
		c-0.53-2.609-0.947-5.529-1.417-8.729C1419.43,139.445,1418.322,131.325,1417.873,123.245z"/>
	<path class="st0" d="M1354.847,446.301c0.266-0.076,0.533-0.138,0.808-0.198c0.311-0.07,0.618-0.135,0.938-0.189
		c0.312-0.057,0.625-0.113,0.94-0.156c0.597-0.08,1.194-0.143,1.798-0.175c0.088-0.009,0.174-0.011,0.267-0.011
		c0.222-0.016,0.44-0.02,0.665-0.021c0.068-0.008,0.134-0.009,0.205-0.002c0.212-0.005,0.423-0.005,0.639,0.004
		c0.126-0.004,0.251-0.002,0.374,0.007c0.014-0.003,0.034-0.004,0.052,0.001c0.567,0.023,1.142,0.067,1.711,0.13
		c0.294,0.03,0.579,0.072,0.87,0.115c0.083,0.011,0.158,0.024,0.235,0.033c0.176,0.03,0.352,0.061,0.526,0.097
		c0.202,0.031,0.4,0.074,0.6,0.117c0.529,0.111,1.053,0.24,1.571,0.387s1.032,0.312,1.541,0.496
		c0.191,0.068,0.384,0.136,0.571,0.215c0.168,0.061,0.334,0.128,0.499,0.195c0.069,0.032,0.147,0.061,0.224,0.096
		c0.264,0.115,0.534,0.23,0.795,0.357c0.518,0.246,1.029,0.51,1.523,0.789c0.018,0.004,0.035,0.016,0.046,0.025
		c0.108,0.057,0.216,0.121,0.321,0.189c0.188,0.107,0.367,0.217,0.546,0.334c0.063,0.031,0.119,0.066,0.173,0.108
		c0.19,0.12,0.374,0.237,0.555,0.368c0.078,0.049,0.151,0.096,0.223,0.148c0.753,0.53,1.474,1.104,2.161,1.722
		c0.235,0.218,0.471,0.437,0.697,0.659c0.229,0.217,0.448,0.443,0.665,0.676c0.007,0.002,0.011,0.01,0.015,0.018
		c0.025,0.027,0.058,0.057,0.082,0.083c0.025,0.026,0.051,0.054,0.076,0.081c3.831-2.184,6.65-5.756,7.874-10.07
		c2.547-8.977-2.686-18.354-11.662-20.9s-18.354,2.687-20.9,11.663c-1.224,4.313-0.699,8.835,1.414,12.704
		C1354.605,446.364,1354.728,446.327,1354.847,446.301z"/>
	<path class="st0" d="M1630.552,363.925c-24-2.18-44.1-19.26-47.11-39.26h-19.77c-3,21-23.12,37.561-49.12,39.34v20.66h116V363.925z
		"/>
	<path class="st0" d="M1515.552,459.245c0,33.8,23,61.68,52,65.05v-130.11C1538.552,397.556,1515.552,425.445,1515.552,459.245z"/>
	<path class="st0" d="M1250.809,308.993c-18.984-2.639-36.575,10.658-39.215,29.643c-2.64,18.982,10.657,36.575,29.642,39.214
		s36.576-10.657,39.216-29.642C1283.091,329.226,1269.792,311.633,1250.809,308.993z"/>
	<path class="st0" d="M1255.167,277.572l-61.587,24.989l-9.146,65.849l52.443,40.861l61.587-24.989l9.146-65.85L1255.167,277.572z
		 M1288.263,349.295c-3.238,23.291-24.822,39.605-48.113,36.367c-23.292-3.238-39.606-24.821-36.369-48.112
		c3.238-23.292,24.822-39.607,48.113-36.369C1275.187,304.42,1291.501,326.003,1288.263,349.295z"/>
	<path class="st0" d="M1554.273,324.665h-39.721v29.109C1534.552,351.915,1551.373,339.665,1554.273,324.665z"/>
	<path class="st0" d="M1401.551,73.325c0,3.32-0.689,6.28-1.899,9.17l16.359,2.89c0-23.68-8.414-36.954-13.592-38.72
		c-5.863-2-15.446-0.167-22.732,2.14C1391.876,49.805,1401.551,60.765,1401.551,73.325z"/>
	<path class="st0" d="M1316.218,110.833c-9.558,0-17.334,7.776-17.334,17.333s7.776,17.333,17.334,17.333
		s17.333-7.775,17.333-17.333S1325.776,110.833,1316.218,110.833z"/>
	<path class="st0" d="M1338.163,474.642c-0.058-0.215-0.114-0.435-0.158-0.651c-0.018-0.077-0.037-0.149-0.055-0.227
		c-0.059-0.28-0.119-0.555-0.166-0.831c-0.055-0.32-0.11-0.633-0.153-0.947c-0.081-0.598-0.143-1.195-0.176-1.798
		c-0.008-0.088-0.01-0.175-0.01-0.267c-0.017-0.222-0.021-0.44-0.022-0.666c-0.007-0.066-0.008-0.134-0.001-0.204
		c-0.006-0.212-0.005-0.424,0.003-0.64c-0.004-0.125-0.001-0.25,0.007-0.373c-0.002-0.014-0.003-0.034,0.002-0.052
		c0.022-0.567,0.066-1.142,0.129-1.711c0.029-0.289,0.072-0.579,0.113-0.864c0.011-0.084,0.027-0.164,0.035-0.241
		c0.031-0.175,0.061-0.352,0.098-0.526c0.03-0.201,0.074-0.4,0.117-0.6c0.11-0.529,0.239-1.053,0.387-1.572
		c0.146-0.518,0.312-1.031,0.496-1.539c0.067-0.192,0.135-0.385,0.215-0.572c0.061-0.168,0.127-0.334,0.194-0.5
		c0.032-0.068,0.06-0.141,0.095-0.217c0.116-0.27,0.23-0.534,0.359-0.801c0.245-0.518,0.509-1.029,0.788-1.523
		c0.005-0.02,0.017-0.035,0.025-0.046c0.058-0.108,0.121-0.216,0.19-0.322c0.106-0.187,0.217-0.366,0.333-0.544
		c0.031-0.064,0.067-0.12,0.108-0.174c0.12-0.19,0.238-0.375,0.369-0.555c0.048-0.079,0.095-0.151,0.147-0.223
		c0.53-0.753,1.104-1.474,1.722-2.162c0.219-0.234,0.437-0.47,0.659-0.696c0.217-0.229,0.443-0.448,0.677-0.665
		c0.002-0.007,0.01-0.011,0.018-0.016c0.026-0.025,0.056-0.057,0.082-0.082c0.027-0.025,0.054-0.051,0.081-0.075
		c-2.184-3.831-5.755-6.651-10.069-7.875c-8.977-2.546-18.354,2.687-20.9,11.663s2.686,18.354,11.662,20.899
		c4.314,1.224,8.835,0.7,12.705-1.413C1338.233,474.905,1338.197,474.776,1338.163,474.642z"/>
	<path class="st0" d="M1246.218,110.833c-9.559,0-17.334,7.776-17.334,17.333s7.775,17.333,17.334,17.333
		c9.557,0,17.333-7.775,17.333-17.333S1255.775,110.833,1246.218,110.833z"/>
	<polygon class="st0" points="1405.972,110.635 1418.283,96.035 1399.482,92.675 	"/>
	<path class="st0" d="M1353.262,79.665h-157.71v142h175V96.955C1362.552,94.755,1355.462,87.665,1353.262,79.665z M1218.884,128.166
		c0-15.072,12.262-27.333,27.334-27.333c15.071,0,27.333,12.262,27.333,27.333c0,15.071-12.262,27.333-27.333,27.333
		C1231.146,155.499,1218.884,143.237,1218.884,128.166z M1293.552,198.665h-30c-2.762,0-5-2.238-5-5s2.238-5,5-5h30
		c2.762,0,5,2.238,5,5S1296.314,198.665,1293.552,198.665z M1316.218,155.499c-15.072,0-27.334-12.262-27.334-27.333
		c0-15.072,12.262-27.333,27.334-27.333c15.071,0,27.333,12.262,27.333,27.333C1343.551,143.237,1331.29,155.499,1316.218,155.499z"
		/>
	<polygon class="st0" points="1335.252,50.355 1354.062,53.625 1347.493,35.695 	"/>
	<path class="st0" d="M1366.543,491.344c-0.235,0.065-0.478,0.128-0.715,0.173c-1.186,0.276-2.391,0.456-3.598,0.529
		c-0.263,0.018-0.524,0.035-0.79,0.039c-0.252,0.008-0.505,0.016-0.762,0.015c-0.026,0-0.055,0.005-0.085-0.004
		c-0.231,0.001-0.46-0.005-0.689-0.012c-0.275-0.005-0.553-0.024-0.831-0.044c-0.311-0.022-0.618-0.051-0.926-0.084
		c-0.288-0.029-0.579-0.072-0.864-0.114c-0.083-0.01-0.164-0.026-0.24-0.035c-0.177-0.03-0.353-0.06-0.527-0.097
		c-0.201-0.03-0.4-0.074-0.6-0.117c-0.528-0.11-1.053-0.239-1.571-0.387c-0.519-0.146-1.032-0.312-1.54-0.496
		c-0.192-0.067-0.384-0.135-0.572-0.215c-0.167-0.061-0.333-0.128-0.499-0.195c-0.07-0.032-0.141-0.059-0.217-0.094
		c-0.271-0.116-0.535-0.23-0.802-0.359c-0.278-0.132-0.556-0.27-0.832-0.414c-0.247-0.129-0.493-0.258-0.73-0.398
		c-0.198-0.115-0.396-0.23-0.593-0.353c-0.03-0.009-0.051-0.028-0.074-0.042c-0.219-0.133-0.43-0.272-0.641-0.411
		c-0.224-0.143-0.438-0.296-0.651-0.449c-0.659-0.464-1.289-0.966-1.894-1.506c-0.127-0.108-0.249-0.216-0.368-0.329
		c-0.157-0.144-0.312-0.293-0.462-0.44c-0.229-0.217-0.447-0.443-0.665-0.677c-0.006-0.002-0.011-0.01-0.015-0.018
		c-0.027-0.021-0.051-0.055-0.082-0.082c-0.025-0.027-0.051-0.055-0.076-0.082c-3.83,2.184-6.65,5.756-7.875,10.07
		c-2.546,8.977,2.687,18.354,11.663,20.9c8.977,2.546,18.354-2.686,20.9-11.663c1.224-4.314,0.7-8.834-1.413-12.704
		C1366.786,491.281,1366.664,491.318,1366.543,491.344z"/>
	<path class="st0" d="M1395.827,461.196c-4.314-1.223-8.835-0.699-12.705,1.414c0.037,0.129,0.072,0.258,0.106,0.393
		c0.051,0.193,0.102,0.386,0.145,0.582c0.038,0.169,0.076,0.338,0.107,0.506c0.02,0.051,0.022,0.105,0.035,0.154
		c0.049,0.225,0.091,0.448,0.125,0.676c0.141,0.784,0.232,1.575,0.277,2.367c0.019,0.262,0.037,0.523,0.041,0.789
		c0.007,0.252,0.015,0.505,0.014,0.762c0,0.026,0.005,0.055-0.004,0.085c0.001,0.231-0.005,0.46-0.011,0.688
		c-0.005,0.275-0.024,0.554-0.045,0.832c-0.022,0.311-0.05,0.619-0.085,0.926c-0.03,0.295-0.071,0.578-0.114,0.87
		c-0.01,0.083-0.024,0.157-0.033,0.234c-0.03,0.177-0.061,0.353-0.097,0.526c-0.031,0.202-0.074,0.401-0.118,0.6
		c-0.11,0.529-0.239,1.054-0.387,1.572c-0.147,0.518-0.312,1.032-0.496,1.54c-0.067,0.192-0.136,0.384-0.215,0.571
		c-0.061,0.168-0.127,0.334-0.194,0.5c-0.033,0.069-0.062,0.146-0.096,0.223c-0.115,0.264-0.231,0.534-0.357,0.795
		c-0.133,0.279-0.271,0.557-0.415,0.833c-0.129,0.246-0.258,0.493-0.397,0.729c-0.115,0.199-0.23,0.396-0.354,0.594
		c-0.009,0.03-0.027,0.051-0.041,0.074c-0.134,0.219-0.273,0.43-0.412,0.641c-0.143,0.223-0.295,0.438-0.449,0.651
		c-0.464,0.659-0.965,1.288-1.506,1.894c-0.108,0.127-0.215,0.248-0.328,0.368c-0.145,0.157-0.293,0.312-0.441,0.462
		c-0.217,0.229-0.443,0.447-0.677,0.665c-0.001,0.006-0.009,0.011-0.018,0.015c-0.021,0.026-0.054,0.051-0.083,0.082
		c-0.025,0.025-0.053,0.051-0.08,0.076c2.184,3.83,5.755,6.649,10.07,7.874c8.977,2.547,18.354-2.686,20.899-11.662
		C1410.036,473.121,1404.803,463.743,1395.827,461.196z"/>
	<path class="st0" d="M1385.953,84.645c1.39-1.08,2.58-2.41,3.5-3.92c1.35-2.21,2.13-4.8,2.13-7.56c0-8.01-6.521-14.53-14.53-14.53
		c-3.51,0-6.75,1.26-9.27,3.35c-1.23,1.03-2.301,2.25-3.141,3.63c-0.67,1.1-1.2,2.29-1.56,3.55c-0.36,1.27-0.561,2.61-0.561,4
		c0,2.14,0.471,4.17,1.3,6c1.45,3.2,4.03,5.78,7.23,7.23c1.83,0.83,3.86,1.3,6,1.3c1.39,0,2.73-0.2,4-0.56
		C1382.852,86.615,1384.512,85.765,1385.953,84.645z"/>
	<path class="st0" d="M1579.712,394.665h-2.16v129.81c31-2.359,54.14-30.46,54.14-64.979
		C1631.692,425.615,1608.982,397.665,1579.712,394.665z"/>
	<path class="st0" d="M713.485,460.617l0.233-1.54l13.626-5.799l-1.723-11.76l-14.739-1.646l-0.66-1.404
		c-0.961-2.05-2.228-4.084-4.106-6.599l-1.013-1.132l5.363-13.57l-9.563-7.104l-11.445,9.055l-1.417-0.587
		c-2.687-0.976-5.134-1.649-7.528-2l-1.53-0.24l-5.82-13.678l-11.759,1.724l-1.641,14.682l-1.414,0.657
		c-2.905,1.351-5.115,2.616-6.953,3.987l-1.361,0.85l-13.768-5.592l-7.091,9.548l9.279,11.508l-0.49,1.516
		c-0.873,2.354-1.499,5.03-1.917,7.911l-0.208,1.545l-13.409,5.785l1.754,11.797l14.49,1.631l0.656,1.42
		c1.335,2.893,2.677,5.222,4.104,7.121l0.857,1.363l-5.569,13.737l9.549,7.093l11.538-9.305l1.511,0.482
		c2.375,0.869,5.072,1.488,7.979,1.896l1.555,0.202l5.764,13.357l11.796-1.754l1.636-14.543l1.406-0.66
		c2.098-0.984,4.249-2.327,6.772-4.227l1.134-1.021l13.539,5.341l7.104-9.564l-9.075-11.48l0.577-1.411
		C712.477,465.513,713.143,463.044,713.485,460.617z M699.479,473.447c-10.091,13.587-29.353,16.431-42.938,6.34
		c-13.586-10.09-16.43-29.353-6.34-42.938c10.09-13.586,29.353-16.43,42.938-6.34C706.725,440.6,709.568,459.861,699.479,473.447z"
		/>
	<path class="st0" d="M898.552,420.665c-5.79,0-10.5,4.71-10.5,10.5s4.71,10.5,10.5,10.5s10.5-4.71,10.5-10.5
		S904.342,420.665,898.552,420.665z"/>
	<polygon class="st0" points="1004.552,500.665 1004.552,474.265 990.482,500.665 	"/>
	<path class="st0" d="M1022.552,317.665c0-5.79-4.71-10.5-10.5-10.5s-10.5,4.71-10.5,10.5s4.71,10.5,10.5,10.5
		S1022.552,323.455,1022.552,317.665z"/>
	<path class="st0" d="M898.98,318.753c-10.463,2.911-21.831-1.502-27.511-11.311c-5.63-9.721-3.841-21.708,3.778-29.353
		c-6.059-2.153-12.024-1.866-16.852,0.929c-8.167,4.73-11.454,16.293-8.414,28.376l0.735,2.568l-76.416,44.253l8.829,15.245
		l76.363-44.223l1.551,1.395c9.012,8.788,20.516,11.354,28.742,6.59C894.678,330.39,897.875,325.206,898.98,318.753z"/>
	<path class="st0" d="M1012.092,358.735c-38.41,0-69.94,29.93-72.24,67.93h144.48
		C1082.033,388.665,1050.512,358.735,1012.092,358.735z"/>
	<path class="st0" d="M-166.448-96.335v738h2003v-738H-166.448z M1591.635,39.08c9.918-7.073,23.041-8.015,36.215-2.286l6.383,2.715
		l-5.577,4.27c-10.174,7.906-12.311,22.28-4.843,32.749c7.524,10.551,21.871,13.181,32.671,6.006l5.851-3.895l0.723,7.17
		c1.251,14.513-3.654,27.101-13.667,34.244c-12.635,9.01-31.485,6.729-46.148-3.289l-96.891,69.107l-23.233-32.574l96.984-69.173
		C1574.47,65.615,1579.092,48.026,1591.635,39.08z M1012.406,79.68l-15.727-11.766l9.441-23.377l19.652,2.489
		c1.497-1.719,3.24-3.234,5.125-4.893l-2.717-19.256l23.177-9.879l11.996,15.292c2.64-0.239,4.899-0.387,7.073-0.293l11.801-15.9
		l23.36,9.403l-2.485,19.542c1.75,1.508,3.286,3.25,4.967,5.143l19.318-2.729l9.879,23.174l-15.238,11.968
		c0.252,2.712,0.405,5.089,0.307,7.351l15.688,11.658l-9.372,23.39l-19.229-2.366c-1.712,2.04-3.414,4.043-5.231,5.678l2.943,19.517
		l-23.198,9.887l-12.056-15.639c-2.353,0.158-4.929,0.059-7.725-0.143l-11.62,15.511l-23.407-9.411l2.371-19.337
		c-2.009-1.704-3.989-3.406-5.602-5.209l-19.457,2.923l-9.889-23.199l15.695-12.085C1012.105,84.875,1012.209,82.422,1012.406,79.68
		z M926.816,170.574c3.547,0,6.951,0.911,9.942,2.593c-1.683-2.99-2.593-6.395-2.593-9.943c0-11.163,9.076-20.239,20.238-20.239
		c11.163,0,20.239,9.077,20.239,20.239c0,3.548-0.91,6.953-2.593,9.943c2.99-1.683,6.395-2.593,9.942-2.593
		c11.163,0,20.239,9.077,20.239,20.24c0,11.162-9.076,20.238-20.239,20.238c-3.548,0-6.952-0.91-9.942-2.593
		c1.683,2.991,2.593,6.396,2.593,9.942c0,11.163-9.076,20.239-20.239,20.239c-11.162,0-20.238-9.076-20.238-20.239
		c0-3.547,0.91-6.951,2.593-9.942c-2.991,1.683-6.396,2.593-9.942,2.593c-11.163,0-20.239-9.076-20.239-20.238
		C906.577,179.65,915.653,170.574,926.816,170.574z M617.552,123.715v-42.96c0-4.74,4.53-8.09,9.5-8.09h91.5v-19.26
		c-12-2.34-20.97-12.99-20.97-25.74c0-14.46,11.885-26.22,26.345-26.22s26.032,11.76,26.032,26.22c0,12.75-8.407,23.4-21.407,25.74
		v19.26h92.5c4.97,0,8.5,3.35,8.5,8.09v42.17c14,3.25,24.25,14.471,24.25,27.86c0,13.5-10.25,24.899-24.25,28.17v32.62
		c0,4.74-3.53,9.09-8.5,9.09h-194c-4.97,0-9.5-4.35-9.5-9.09v-33.45c-12-4.07-21.25-14.67-21.25-27.08
		C596.302,138.515,605.552,127.825,617.552,123.715z M640.552,271.643v-5.155l34,17.705v4.26l-34,17.779v-5.154l29-14.643v-0.15
		L640.552,271.643z M383.261,75.282c4.719-2.625,9.921-3.934,15.145-3.908c-4.452-2.732-8.182-6.587-10.808-11.306
		c-8.26-14.847-2.904-33.637,11.943-41.897c14.848-8.26,33.637-2.904,41.897,11.943c2.626,4.719,3.934,9.921,3.909,15.144
		c2.733-4.451,6.587-8.182,11.306-10.807c14.848-8.26,33.637-2.904,41.897,11.943c8.261,14.848,2.905,33.637-11.943,41.897
		c-4.718,2.625-9.92,3.934-15.143,3.909c4.451,2.733,8.181,6.588,10.806,11.306c8.261,14.848,2.905,33.636-11.942,41.897
		c-14.848,8.26-33.637,2.904-41.897-11.943c-2.625-4.718-3.934-9.921-3.908-15.144c-2.732,4.451-6.587,8.181-11.306,10.807
		c-14.847,8.26-33.637,2.905-41.897-11.942S368.414,83.542,383.261,75.282z M109.531,527.641l-60.12-13.178l-18.664-58.649
		l41.457-45.472l60.12,13.178l18.663,58.649L109.531,527.641z M168.028,379.011c-7.121-1.638-12.765-7.154-15.434-15.348
		l-1.32-3.947l4.135,0.807c7.598,1.422,14.9-3.338,16.63-10.854c1.742-7.575-2.784-15.062-10.302-17.058l-4.076-1.076l2.932-3.178
		c6.019-6.336,13.621-9.141,20.811-7.487c9.072,2.087,15.546,11.458,16.883,22.027l69.571,16.005l-5.381,23.389l-69.639-16.021
		C186.771,376.161,177.035,381.084,168.028,379.011z M242.552,458.569l-29,14.643v0.15l29,14.643v5.154l-35-17.855v-4.033l35-17.855
		V458.569z M252.171,495.665h-5.005l20.768-54h5.155L252.171,495.665z M276.552,165.665h-17v46h-66v24h-99v-24h-62v-46h-17v-68h17
		v-39h60.49l-22.99-22.85c-1.97-1.94-2-5.225-0.07-7.195c1.94-1.97,5.11-2.062,7.07-0.123l28.67,28.379
		c0.47,0.46,0.84,0.789,1.08,1.789h77.5c0.28-1,0.69-1.47,1.24-1.97l31.33-28.295c2.06-1.84,5.22-1.732,7.069,0.318
		c1.841,2.05,1.67,5.438-0.38,7.278l-24.97,22.669h60.96v39h17V165.665z M312.552,475.379l-35,17.78v-5.154l30-14.643v-0.15
		l-30-14.643v-5.154l35,17.705V475.379z M520.552,425.665h-19v75h-25.93l-1.08,0.75l-39.46,36.355
		c-1.021,0.939-2.4,1.407-3.82,1.407c-1.44,0-2.81-0.562-3.83-1.501l-39.46-36.246l-1.08-0.766h-27.34v-75h-20v-57h20v-48h45.12
		l-20.2-35.24c-1.38-2.39-0.56-5.564,1.83-6.955c2.39-1.38,5.45-0.623,6.83,1.767l22.5,39.199c0.19,0.33,0.33,0.229,0.44,1.229
		h30.96c0.109-1,0.25-0.93,0.439-1.26l22.5-39.105c1.38-2.39,4.44-3.272,6.83-1.892c2.39,1.39,3.21,4.659,1.83,7.048l-20.2,35.209
		h43.12v48h19V425.665z M604.552,271.643l-29,14.642v0.15l29,14.643v5.154l-34-17.855v-4.033l34-17.855V271.643z M609.588,308.665
		l20.768-54h5.155l-20.918,54H609.588z M727.002,480.986l-12.188,16.409l-14.624-5.772c-1.796,1.287-3.398,2.369-5.023,3.226
		l-1.741,15.763l-20.222,3.014l-6.217-14.438c-2.13-0.364-4.23-0.736-6.12-1.339l-12.465,10.054l-16.426-12.199l6.017-14.851
		c-1.075-1.582-2.06-3.428-3.064-5.469l-15.624-1.787l-2.994-20.25l14.516-6.259c0.371-2.104,0.752-4.188,1.355-6.056
		l-10.016-12.432l12.201-16.428l14.893,6.045c1.516-1.021,3.278-1.952,5.279-2.938l1.801-15.834l20.241-2.96l6.305,14.785
		c1.817,0.344,3.591,0.945,5.526,1.586l12.376-9.789l16.411,12.189l-5.8,14.665c1.249,1.751,2.278,3.273,3.103,4.835l15.971,1.754
		l2.979,20.213l-14.706,6.263c-0.339,1.844-0.931,3.633-1.568,5.585L727.002,480.986z M858.575,333.041l-77.737,45.018
		l-15.134-26.134l77.812-45.062c-2.911-14.309,1.816-27.196,11.881-33.024c7.955-4.608,17.885-4.379,27.376,0.865l4.603,2.497
		l-4.495,2.811c-8.21,5.215-10.84,15.864-5.977,24.263c4.902,8.465,15.495,11.466,24.122,6.844l4.674-2.509l0.032,5.44
		c-0.095,10.995-4.68,20.104-12.713,24.756C882.882,344.674,868.879,341.614,858.575,333.041z M1124.552,446.915
		c-7.52,0-13.81-5.25-15.2-12.25h-17.8v78h-162v-78h-15.8c-1.39,7-7.681,12.25-15.2,12.25c-8.55,0-15.5-7.075-15.5-15.625
		s6.95-15.312,15.5-15.312c7.87,0,14.391,5.688,15.37,13.688h16.129c-0.001-1,0.003-2.085,0.051-3
		c1.011-20.27,9.421-39.285,23.82-53.654c14.68-14.641,34.63-23.115,54.63-23.796v-16.35c-7-1.39-12.25-7.681-12.25-15.2
		c0-8.55,7.075-15.5,15.625-15.5s15.312,6.95,15.312,15.5c0,7.87-5.688,14.391-13.688,15.37v16.159
		c21,0.561,40.29,8.931,55.08,23.691c14.42,14.369,22.475,33.51,23.405,53.779c0.05,0.92,0.104,2,0.055,3h17.09
		c0.98-8,7.5-13.75,15.37-13.75c8.55,0,15.5,6.95,15.5,15.5S1133.102,446.915,1124.552,446.915z M1235.624,418.292l-59.628-46.457
		l10.398-74.87l70.027-28.414l59.629,46.458l-10.4,74.869L1235.624,418.292z M1413.591,483.828
		c-3.502,12.346-16.388,19.537-28.733,16.034c-3.924-1.113-7.403-3.188-10.183-5.987c0.923,3.835,0.86,7.886-0.253,11.81
		c-3.501,12.346-16.388,19.536-28.733,16.033c-12.345-3.501-19.536-16.388-16.033-28.733c1.112-3.923,3.188-7.403,5.987-10.183
		c-3.835,0.923-7.886,0.861-11.81-0.252c-12.346-3.502-19.537-16.389-16.034-28.733c3.502-12.345,16.389-19.536,28.733-16.034
		c3.924,1.113,7.404,3.188,10.184,5.988c-0.923-3.836-0.862-7.887,0.251-11.811c3.503-12.346,16.389-19.536,28.734-16.034
		c12.346,3.503,19.535,16.39,16.034,28.734c-1.114,3.924-3.188,7.403-5.988,10.183c3.836-0.922,7.887-0.861,11.811,0.252
		C1409.904,458.597,1417.093,471.483,1413.591,483.828z M1427.083,101.365c0.479,12.29,1.04,24.67,2.569,36.89
		c0.54,4.36,0.9,8.68,1.891,12.98c0.74,3.189,2.93,6.77,3.31,9.92c0.021,0.17,0.03,0.34,0.03,0.51c0,2.76-2.47,5-5.51,5
		c-0.141,0-0.811,0-0.95-0.01c-19.64-0.12-35.87-9.04-47.87-22.66v87.67h-195v-162h167.3c0.3-2,0.83-3.9,1.53-5.59l-37.88-6.715
		l34.479-41.292l11.04,29.899c18.029-11.52,36.856-9.867,40.53-9.286c14.752,2.333,23.61,26.452,23.61,50.552
		c5.381,0.89,5.68,1.046,11.05,2.006l-9.16,11.008l-0.973,1.078L1427.083,101.365z M1680.072,465.105l-37.5,0.56
		c-0.01,0-0.01,0-0.02,0c-0.28,0-0.55-0.28-0.81-0.33c-0.36,5.17-1.19,10.075-2.45,14.905c0.52,0.109,1.02,0.247,1.5,0.537
		l33.95,20.389c2.369,1.42,3.13,4.484,1.71,6.845c-0.94,1.56-2.591,2.422-4.29,2.422c-0.88,0-1.771-0.233-2.57-0.724l-33.41-20.102
		c-10.54,26.5-34.45,45.028-62.19,45.028c-27.67,0-51.52-18.451-62.1-44.84l-33.1,19.909c-0.801,0.49-1.69,0.72-2.57,0.72
		c-1.689,0-3.35-0.87-4.29-2.43c-1.42-2.36-0.659-5.44,1.71-6.86l33.95-20.42c0.36-0.22,0.75-0.39,1.14-0.5
		c-1.3-4.93-2.14-10.08-2.49-15.37c-0.06,0.011-0.109,0.261-0.17,0.261l-37.5,0.56c-0.01,0-0.01,0-0.02,0c-2.75,0-4.99-2.86-5-5.61
		c-0.01-2.76,2.221-4.614,4.98-4.625l37.5,0.235c0.01,0,0.01,0,0.02,0h0.109c0.271-6,1.16-11.78,2.591-17.2
		c-0.4-0.109-0.79-0.405-1.16-0.635l-33.95-20.482c-2.369-1.431-3.13-4.531-1.71-6.892c1.431-2.369,4.5-3.146,6.86-1.726
		l33.119,20.162c5.801-14.45,15.591-27.228,27.811-34.228h-35.17v-80h37.33l-20.25-17.62l6.51-7.465l29.09,25.085h33.641
		l29.09-25.21l6.51,7.715l-20.25,17.495h34.33v80h-32.28c12.271,7,22.09,19.87,27.88,34.41l33.44-20.235
		c2.36-1.42,5.43-0.722,6.86,1.647c1.42,2.36,0.659,5.398-1.71,6.829l-33.95,20.404c-0.48,0.29-1,0.492-1.521,0.603
		c1.41,5.369,2.28,10.985,2.561,16.786c0.229-0.03,0.46,0.197,0.7,0.197l37.5,0.358c0.01,0,0.01,0,0.02,0c2.75,0,4.99,1.635,5,4.395
		C1685.062,462.82,1682.833,465.095,1680.072,465.105z"/>
	<path class="st0" d="M938.552,504.665h36.55c0.12-1,0.271-1.2,0.47-1.54l29.881-52.175l0.609-1.133
		c1.04-1.78,2.931-2.931,4.971-2.931c1.02,0,2.01,0.264,2.869,0.754c0.86,0.49,1.591,1.223,2.101,2.122l0.92,1.637l29.35,51.188
		c0.3,0.44,0.55,1.078,0.721,2.078h36.56v-69h-145V504.665z"/>
	<polygon class="st0" points="1016.552,500.665 1031.592,500.665 1016.552,474.775 	"/>
</g>
</svg>
