<?xml version="1.0" encoding="utf-8"?>
<!-- Generator: Adobe Illustrator 15.0.0, SVG Export Plug-In . SVG Version: 6.00 Build 0)  -->
<!DOCTYPE svg PUBLIC "-//W3C//DTD SVG 1.1//EN" "http://www.w3.org/Graphics/SVG/1.1/DTD/svg11.dtd">
<svg version="1.1" id="Layer_1" xmlns="http://www.w3.org/2000/svg" xmlns:xlink="http://www.w3.org/1999/xlink" x="0px" y="0px"
	 width="300px" height="300px" viewBox="0 0 300 300" style="enable-background:new 0 0 300 300;" xml:space="preserve">
<style type="text/css">
<![CDATA[
	.st0{fill:#FFFFFF;stroke:#000000;stroke-width:0.25;stroke-miterlimit:10;}
	.st1{fill:#FFFFFF;}
	.st2{fill:none;stroke:#000000;stroke-width:0.25;stroke-miterlimit:10;}
]]>
</style>
<path class="st0" d="M118.094,101.987H55.533V39.426h62.561V101.987z M71.382,65.285h2.085V48.811h-1.8l-3.583,1.909l0.429,1.703
	l2.852-1.527h0.017V65.285z M99.534,93.02h2.085V76.545h-1.813l-3.584,1.95l0.43,1.683l2.851-1.547h0.031V93.02z M100.519,48.39
	c-3.356,0-5.772,3.026-5.772,8.594c0.051,5.467,2.263,8.493,5.492,8.493c3.636,0,5.747-3.102,5.747-8.721
	C105.985,51.492,103.977,48.39,100.519,48.39z M100.366,50.119c2.339,0,3.356,2.67,3.356,6.738c0,4.221-1.093,6.891-3.356,6.891
	c-2.034,0-3.356-2.441-3.356-6.738C97.009,52.509,98.434,50.119,100.366,50.119z M72.554,76.354c-3.356,0-5.772,3.026-5.772,8.594
	c0.051,5.467,2.263,8.493,5.492,8.493c3.636,0,5.747-3.102,5.747-8.721C78.021,79.456,76.012,76.354,72.554,76.354z M72.401,78.083
	c2.339,0,3.356,2.67,3.356,6.738c0,4.221-1.094,6.891-3.356,6.891c-2.034,0-3.356-2.441-3.356-6.738
	C69.045,80.473,70.469,78.083,72.401,78.083z"/>
<path class="st2" d="M114.966,96.606c0,1.244-1.009,2.252-2.252,2.252h-51.8c-1.244,0-2.252-1.009-2.252-2.252v-51.8
	c0-1.244,1.008-2.252,2.252-2.252h51.8c1.244,0,2.252,1.008,2.252,2.252V96.606z"/>
<path class="st0" d="M91.919,237.857H16.978v-74.941h74.941V237.857z M66.957,201.65c-1.318,0-2.582,0.229-3.757,0.646
	c0.168-0.688,0.26-1.405,0.26-2.144c0-0.55-0.052-1.086-0.146-1.606c1.142,0.391,2.367,0.606,3.643,0.606
	c6.208,0,11.241-5.033,11.241-11.241c0-6.209-5.034-11.24-11.241-11.24c-6.208,0-11.241,5.031-11.241,11.24
	c0,1.194,0.188,2.345,0.533,3.425c-0.576-0.115-1.172-0.177-1.782-0.177c-0.61,0-1.206,0.062-1.782,0.177
	c0.345-1.08,0.533-2.23,0.533-3.425c0-6.209-5.033-11.24-11.241-11.24c-6.208,0-11.241,5.031-11.241,11.24
	c0,6.208,5.033,11.241,11.241,11.241c1.276,0,2.5-0.216,3.644-0.606c-0.094,0.521-0.146,1.057-0.146,1.606
	c0,0.738,0.091,1.456,0.259,2.144c-1.175-0.417-2.439-0.646-3.757-0.646c-6.208,0-11.241,5.033-11.241,11.241
	s5.033,11.241,11.241,11.241c6.208,0,11.241-5.033,11.241-11.241c0-1.396-0.256-2.732-0.721-3.966
	c0.634,0.142,1.293,0.219,1.971,0.219c0.677,0,1.336-0.077,1.971-0.219c-0.465,1.233-0.722,2.569-0.722,3.966
	c0,6.208,5.033,11.241,11.241,11.241c6.208,0,11.241-5.033,11.241-11.241S73.165,201.65,66.957,201.65z"/>
<path class="st0" d="M184.265,158.85l-50.342-16.58l16.58-50.342l50.343,16.58L184.265,158.85z M171.754,145.615l15.587-13.839
	l-4.312-20.394l-19.9-6.554l-15.587,13.839l4.312,20.393L171.754,145.615z"/>
<circle class="st0" cx="167.528" cy="125.368" r="10.375"/>
<path class="st1" d="M266,254h-83v-84h83V254z M216.055,184.746c-9.203,9.202-14.803,18.523-12.508,20.818
	s11.615-3.306,20.818-12.508c9.202-9.203,14.802-18.523,12.507-20.818S225.257,175.543,216.055,184.746z M197.586,220.758
	c9.203,9.203,18.523,14.803,20.818,12.508s-3.305-11.615-12.508-20.817c-9.202-9.203-18.522-14.803-20.817-12.508
	S188.384,211.556,197.586,220.758z M243.665,211.434c9.157,9.157,18.441,14.72,20.735,12.426c2.295-2.296-3.268-11.58-12.425-20.736
	c-9.157-9.157-18.44-14.721-20.735-12.426S234.508,202.276,243.665,211.434z M246.023,218.491
	c-2.309-2.308-11.603,3.244-20.76,12.401c-9.156,9.156-14.708,18.45-12.399,20.758c2.308,2.309,11.602-3.244,20.758-12.4
	C242.779,230.094,248.331,220.799,246.023,218.491z"/>
</svg>
